<svg version="1.1" id="Layer_1" xmlns="http://www.w3.org/2000/svg" xmlns:xlink="http://www.w3.org/1999/xlink" x="0px" y="0px"
	 width="595.283px" height="595.272px" viewBox="-0.088 120.732 595.283 595.272"
	 style="enable-background:new -0.088 120.732 595.283 595.272;" xml:space="preserve">
<g id="background">
	<path style="fill:#FFE132;" d="M297.56,716.004c164.803,0,297.636-133.684,297.636-297.645
		c0-164.793-133.674-297.627-297.636-297.627c-164.802,0-297.644,133.675-297.644,297.627
		C-0.917,583.153,132.758,716.004,297.56,716.004"/>
</g>
<g id="icon">
	<rect x="115.426" y="416.21" style="fill:#25214C;" width="364.475" height="16.982"/>
	<path style="fill:#25214C;" d="M396.947,424.701c0,54.832-44.45,99.283-99.283,99.283s-99.283-44.451-99.283-99.283
		c0-54.833,44.45-99.284,99.283-99.284l0,0C352.496,325.417,396.947,369.868,396.947,424.701 M412.203,424.701
		c0-63.259-51.281-114.54-114.54-114.54s-114.54,51.281-114.54,114.54c0,63.258,51.281,114.539,114.54,114.539
		S412.203,487.959,412.203,424.701L412.203,424.701"/>
	<path style="fill:#25214C;" d="M443.509,327.144l-11.617-22.908c-0.156-0.35-0.378-0.667-0.653-0.933
		c-0.182-0.222-0.426-0.384-0.7-0.467c-0.309-0.053-0.624-0.053-0.933,0h-9.331v45.116h9.331v-26.127c0-0.607,0-1.26,0-1.96
		c0-0.7,0-1.446,0-2.146l12.037,23.328c0.33,0.676,0.849,1.243,1.493,1.633c0.65,0.38,1.393,0.574,2.146,0.56h1.4
		c1.555,0.065,3.001-0.795,3.686-2.193l11.943-23.328c0,1.493,0,2.846,0,4.106v25.94h9.332v-45.116h-9.752
		c-0.293-0.053-0.593-0.053-0.886,0c-0.283,0.092-0.54,0.252-0.747,0.467c-0.261,0.278-0.48,0.592-0.653,0.933l-11.57,22.814
		c-0.42,0.793-0.84,1.633-1.213,2.473l-1.12,2.66c-0.326-0.887-0.699-1.727-1.072-2.613c-0.374-0.887-0.794-1.633-1.214-2.426"/>
	<polygon style="fill:#25214C;" points="426.853,358.17 426.853,366.941 440.243,366.941 440.243,405.898 451.347,405.898
		451.347,366.941 464.784,366.941 464.784,358.17 	"/>
	<rect x="144.213" y="360.502" style="fill:#25214C;" width="10.544" height="45.163"/>
</g>
</svg>
