<!DOCTYPE svg PUBLIC "-//W3C//DTD SVG 1.1//EN" "http://www.w3.org/Graphics/SVG/1.1/DTD/svg11.dtd">
<svg version="1.1" xmlns="http://www.w3.org/2000/svg" xmlns:xlink="http://www.w3.org/1999/xlink" x="0px" y="0px"
	 viewBox="0 0 70.797 70.797" style="enable-background:new 0 0 70.797 70.797;"
	 xml:space="preserve">
<g id="background">
	<path style="fill:#FFE132;" d="M35.389,70.49c19.6,0,35.398-15.899,35.398-35.399c0-19.599-15.898-35.397-35.398-35.397
		c-19.6,0-35.399,15.898-35.399,35.397C-0.109,54.69,15.789,70.49,35.389,70.49"/>
</g>
<g id="icon">
	<path style="fill:#25214C;" d="M44.489,33.892V26.29H56.29v-1H44.489v-5.699h-1v5.699h-7.6v-5.699h-1v5.699h-7.6v-5.699h-1v5.699
		h-11.8v1h11.8v7.602h-11.8v0.999h11.8v5.699l-1.9,1.9H14.49v1h8.899l-5.7,5.699h2.7l5.701-5.699h0.1v5.699h1V43.49h7.6v5.699h1
		V43.49h7.6v5.699h1V43.49H56.19v-1H44.389v-5.8l1.801-1.8h10v-1h-9l1.699-1.7l1,1l3.1-6.4l-6.398,3.102l1,1L44.489,33.892
		L44.489,33.892z M41.088,37.291l-2.398-2.399h4.699l0,0L41.088,37.291z M43.489,26.291v7.602H37.79l-1.898-1.9v-5.7L43.489,26.291
		L43.489,26.291z M27.288,26.291h7.602v5.7l-1.9,1.9H27.29v-7.601H27.288z M27.288,34.891h4.701l-4.701,4.699V34.891z
		 M27.288,42.491v-0.101l7.4-7.399h0.1v7.6h-7.5V42.491z M43.489,42.491h-7.6v-7.601h0.1l5.102,5.101l0,0l0,0l2.299-2.3v4.8H43.489z
		"/>
</g>
</svg>
