<!DOCTYPE svg PUBLIC "-//W3C//DTD SVG 1.1//EN" "http://www.w3.org/Graphics/SVG/1.1/DTD/svg11.dtd">
<svg version="1.1" xmlns="http://www.w3.org/2000/svg" xmlns:xlink="http://www.w3.org/1999/xlink" x="0px" y="0px"
	 width="70.797px" height="70.797px" viewBox="0 0 70.797 70.797" style="enable-background:new 0 0 70.797 70.797;"
	 xml:space="preserve">
<g id="background">
	<path style="fill:#FFE132;" d="M35.692,70.49c19.6,0,35.398-15.899,35.398-35.399c0-19.599-15.898-35.397-35.398-35.397
		c-19.599,0-35.398,15.898-35.398,35.397C0.193,54.69,16.093,70.49,35.692,70.49"/>
</g>
<g id="icon">
	<path style="fill:#25214C;" d="M32.491,33.892c0.199-0.4,0.301-0.9,0.301-1.4c0-0.6-0.102-1-0.301-1.4
		c-0.199-0.398-0.5-0.698-0.799-0.898c-0.301-0.2-0.701-0.4-1.201-0.602c-0.398-0.198-0.898-0.3-1.299-0.398H29.09v-3.3
		c0.4,0,0.701,0.1,1.102,0.2c0.299,0.198,0.6,0.398,0.898,0.6l1.4-1.5c-0.4-0.4-0.9-0.6-1.5-0.8c-0.602-0.2-1.102-0.3-1.699-0.3
		h-0.301v-1.102h-0.9v1.102c-0.5,0-0.898,0.199-1.299,0.3c-0.4,0.2-0.801,0.398-1.102,0.7c-0.299,0.3-0.6,0.6-0.799,1
		c-0.201,0.398-0.301,0.8-0.301,1.3s0.1,1,0.301,1.398c0.199,0.4,0.398,0.7,0.799,0.9c0.301,0.3,0.701,0.5,1.102,0.6
		c0.398,0.2,0.799,0.3,1.299,0.4h0.102v3.398c-0.5,0-0.9-0.198-1.301-0.398s-0.801-0.5-1-0.8l-1.5,1.5c0.5,0.5,1.1,0.898,1.699,1.1
		c0.701,0.2,1.301,0.3,2.102,0.3v1.2h0.898v-1.2c0.5-0.1,1-0.2,1.5-0.3c0.5-0.2,0.801-0.399,1.201-0.7
		C31.991,34.691,32.292,34.392,32.491,33.892z M28.192,28.892c-0.199-0.102-0.398-0.2-0.6-0.2c-0.199-0.102-0.301-0.2-0.5-0.3
		c-0.102-0.102-0.199-0.2-0.301-0.4c-0.1-0.2-0.1-0.399-0.1-0.6c0-0.4,0.1-0.7,0.398-1c0.301-0.301,0.602-0.4,1-0.5v3H28.192z
		 M30.592,33.291c-0.102,0.2-0.201,0.4-0.4,0.5c-0.199,0.102-0.301,0.2-0.5,0.3c-0.199,0.102-0.398,0.2-0.6,0.2v-3.2
		c0.199,0.102,0.398,0.102,0.6,0.2c0.199,0.102,0.4,0.2,0.5,0.3c0.199,0.102,0.301,0.2,0.4,0.4s0.199,0.4,0.199,0.6
		C30.692,32.892,30.692,33.091,30.592,33.291z M46.292,33.892c-0.602,0.398-1.301,0.5-2.102,0.5c-0.398,0-0.799-0.102-1.1-0.2
		c-0.299-0.102-0.699-0.3-0.9-0.5c-0.299-0.2-0.5-0.4-0.699-0.7s-0.301-0.6-0.398-0.9h3.5l0.398-1.398h-4.199c0-0.102,0-0.102,0-0.2
		s0-0.1,0-0.2v-0.3c0-0.3,0-0.6,0-0.8h4.498l0.5-1.4h-4.697c0.1-0.398,0.299-0.699,0.5-0.898c0.199-0.3,0.5-0.5,0.697-0.7
		c0.303-0.2,0.602-0.3,0.9-0.4c0.301-0.1,0.701-0.1,1-0.1c0.4,0,0.801,0,1.201,0.1c0.398,0.102,0.699,0.2,0.898,0.302l0.602-1.602
		c-0.301-0.2-0.701-0.3-1.102-0.398c-0.5-0.102-1-0.2-1.5-0.2c-0.699,0-1.301,0.1-1.801,0.3c-0.6,0.2-1.1,0.399-1.5,0.8
		c-0.398,0.3-0.799,0.8-1.1,1.2c-0.299,0.5-0.6,1-0.699,1.6h-0.9l-0.5,1.4h1.201c0,0.1,0,0.2,0,0.398c0,0.102,0,0.302,0,0.4v0.5
		c0,0.1,0,0.1,0,0.2H38.29l-0.5,1.398h1.4c0.1,0.5,0.299,1,0.6,1.5s0.602,0.9,1,1.2c0.4,0.4,0.9,0.601,1.5,0.8
		c0.602,0.2,1.199,0.301,2,0.301c0.602,0,1.102-0.101,1.602-0.199c0.5-0.102,0.898-0.301,1.199-0.5L46.292,33.892z M37.991,38.791
		l-2.398,4.8l-2.5-4.8h-2.201l2.602,4.8h-1.801v1.301h2.5l0.301,0.601v0.8h-2.801v1.3h2.801v2.899h2v-2.899h2.801v-1.3h-2.801v-0.8
		l0.301-0.601h2.5v-1.301h-1.801l2.6-4.8H37.991z"/>
</g>
</svg>
