<!DOCTYPE svg PUBLIC "-//W3C//DTD SVG 1.1//EN" "http://www.w3.org/Graphics/SVG/1.1/DTD/svg11.dtd">
<svg version="1.1" xmlns="http://www.w3.org/2000/svg" xmlns:xlink="http://www.w3.org/1999/xlink" x="0px" y="0px"
	 width="70.797px" height="70.797px" viewBox="0 0 70.797 70.797" style="enable-background:new 0 0 70.797 70.797;"
	 xml:space="preserve">
<g id="background">
	<path style="fill:#FFE132;" d="M35.399,70.797c19.601,0,35.398-15.899,35.398-35.399C70.797,15.799,54.898,0,35.399,0
		C15.799,0,0,15.898,0,35.397C-0.101,54.997,15.799,70.797,35.399,70.797"/>
</g>
<g id="icon">
	<path style="fill:#25214C;" d="M33.499,22.898c-0.2-0.8-0.399-1.5-0.601-1.899L32.797,20.6l0,0l0,0l-0.1,0.399
		c-0.101,0.399-0.301,1.101-0.601,1.899c-1.5,4.899-5,9.499-6,10.801c-1.3,1.499-2.1,3.499-2.1,5.6c0,4.8,3.898,8.8,8.799,8.8
		c4.8,0,8.8-3.899,8.8-8.8c0-2.2-0.8-4.2-2.1-5.7C38.399,32.298,34.899,27.798,33.499,22.898z M45.798,26.198
		c-0.5-0.602-2-2.5-2.6-4.601c-0.102-0.301-0.2-0.601-0.2-0.801v-0.199l0,0l0,0v0.199c-0.101,0.2-0.101,0.5-0.2,0.801
		c-0.6,2.101-2.1,4.101-2.6,4.601c-0.602,0.699-0.9,1.5-0.9,2.398c0,2.102,1.7,3.8,3.8,3.8c2.102,0,3.8-1.698,3.8-3.8
		C46.699,27.698,46.398,26.898,45.798,26.198z"/>
</g>
</svg>
