<svg version="1.2" xmlns="http://www.w3.org/2000/svg" xmlns:xlink="http://www.w3.org/1999/xlink" x="0px" y="0px"
	 viewBox="0 0 70.797 70.797" style="enable-background:new 0 0 70.797 70.797;"
	 xml:space="preserve">
 <g>
 <g id="background">
  <path fill="#ffe132" id="svg_2" d="m35.74995,70.49997c-19.33702,0 -35,-15.66298 -35,-35c0,-19.33702 15.66298,-35 35,-35c19.33702,0 35,15.66298 35,35c0,19.33702 -15.66298,35 -35,35z" opacity="undefined"/>
  </g>
  <g stroke="null" id="icon">
   <path fill="#25214C" stroke="null" d="m35.8043,34.99048c-0.4909,0 -0.93253,-0.05254 -1.37412,-0.21051c-0.39265,11.3236 -1.03077,20.85649 -1.37412,24.91192l5.4964,0c-0.2944,-4.1081 -0.98143,-13.58832 -1.37412,-24.91192c-0.4416,0.10507 -0.88319,0.21051 -1.37412,0.21051l0.00009,0z" id="svg_23"/>
   <path  fill="#25214C"  stroke="null" d="m39.14145,29.30235c0,1.97796 -1.49392,3.58161 -3.33698,3.58161s-3.33698,-1.60364 -3.33698,-3.58161s1.49392,-3.58123 3.33698,-3.58123s3.33698,1.60327 3.33698,3.58123" id="svg_27"/>
   <g stroke="null" id="svg_67">
    <path   fill="#25214C"  stroke="null" d="m30.47093,28.3851c-5.0724,1.59472 -12.7768,4.77748 -12.46197,5.95843c0.2801,1.11663 8.43107,-0.19269 13.54769,-1.55678c-0.86118,-1.2293 -1.2895,-2.77005 -1.08555,-4.4016l-0.00017,-0.00005z" id="svg_24"/>
    <path fill="#25214C"   stroke="null" d="m38.97865,24.83376c1.27722,-5.52151 2.49767,-14.27637 1.4548,-14.57626s-4.06482,7.93693 -5.53116,13.40405c0.69254,-0.12795 1.44159,-0.0761 2.15248,0.12833s1.38409,0.56156 1.92389,1.04388z" id="svg_25"/>
    <path  fill="#25214C"  stroke="null" d="m40.61529,31.30223c-0.53592,1.53609 -1.67203,2.62735 -2.97813,3.17861c3.84274,3.94047 10.23189,9.48531 11.00734,8.61788c0.76256,-0.81719 -4.37927,-7.69355 -8.02904,-11.79644l-0.00017,-0.00005z" id="svg_26"/>
   </g>
  </g>
 </g>

</svg>