<?xml version="1.0" standalone="no"?>
<!DOCTYPE svg PUBLIC "-//W3C//DTD SVG 20010904//EN"
 "http://www.w3.org/TR/2001/REC-SVG-20010904/DTD/svg10.dtd">
<svg version="1.0" xmlns="http://www.w3.org/2000/svg"
 width="700.000000pt" height="700.000000pt" viewBox="0 0 700.000000 700.000000"
 preserveAspectRatio="xMidYMid meet">
<metadata>
Created by potrace 1.11, written by Peter Selinger 2001-2013
</metadata>
<g transform="translate(0.000000,700.000000) scale(0.100000,-0.100000)"
fill="#000000" stroke="none">
<path d="M3335 6645 c-282 -67 -491 -271 -560 -549 -59 -238 -1 -463 176 -681
l57 -71 -616 1 -616 0 -42 -105 c-74 -182 -79 -235 -27 -259 55 -26 362 -113
473 -135 14 -3 124 -25 245 -49 121 -25 238 -48 260 -51 114 -18 188 -27 265
-32 47 -4 87 -8 89 -10 6 -6 7 -2692 1 -2751 -3 -29 -9 -55 -12 -58 -12 -12
-180 -12 -190 -1 -6 6 -105 163 -222 348 -116 185 -341 544 -501 797 -159 254
-297 472 -305 486 -16 26 -74 118 -167 265 -30 47 -64 100 -76 119 -12 19 -32
51 -45 70 -12 20 -28 46 -34 59 -12 24 -24 29 -25 10 -1 -7 -6 -38 -12 -68 -6
-30 -15 -104 -18 -165 -9 -141 -10 -825 -1 -930 15 -189 61 -455 143 -829 3
-10 12 -44 21 -75 9 -31 18 -67 21 -81 11 -64 161 -491 177 -508 6 -6 548 -9
2309 -15 l1089 -4 9 24 c5 13 36 110 69 216 33 106 63 199 66 207 3 8 5 15 4
15 0 0 13 39 29 87 25 74 40 134 65 263 68 346 80 412 90 495 4 25 8 54 10 66
26 132 28 1052 2 1199 -3 17 -8 50 -11 75 -4 25 -8 46 -8 47 -2 1 -114 -174
-277 -435 -30 -48 -120 -190 -200 -315 -80 -125 -149 -235 -155 -244 -5 -9
-57 -91 -115 -182 -58 -91 -123 -195 -145 -231 -21 -36 -42 -67 -45 -70 -3 -3
-20 -27 -37 -55 -17 -27 -115 -185 -219 -350 l-189 -300 -102 0 -103 0 0 1412
0 1413 53 1 c77 2 186 12 247 24 13 3 42 7 65 10 22 3 47 8 55 10 8 2 35 7 60
10 71 10 406 81 495 105 44 12 87 23 95 26 22 5 209 53 252 65 50 13 68 47 56
103 -7 35 -94 261 -105 276 -2 2 -158 5 -346 6 -570 3 -849 8 -853 16 -2 3 20
42 49 85 126 183 169 302 169 467 2 374 -243 666 -617 735 -67 12 -208 10
-270 -4z m257 -440 c15 -8 41 -22 57 -30 36 -19 104 -92 126 -136 25 -47 16
-169 -18 -241 -66 -143 -223 -209 -366 -155 -77 30 -176 131 -190 195 -14 65
-7 171 13 211 23 44 81 106 124 133 76 47 189 57 254 23z"/>
<path d="M2487 1014 c-1 -1 -108 -5 -237 -8 -259 -7 -272 -8 -277 -23 -4 -11
131 -285 195 -398 19 -33 50 -89 69 -125 20 -36 47 -86 62 -112 l26 -48 1162
0 1162 0 92 162 c88 155 236 442 258 500 9 24 8 27 -17 33 -57 12 -403 17
-1430 19 -584 1 -1063 1 -1065 0z"/>
</g>
</svg>
