<svg version="1.1" id="Layer_1" xmlns="http://www.w3.org/2000/svg" xmlns:xlink="http://www.w3.org/1999/xlink" x="0px" y="0px"
	 width="72.093px" height="74.961px" viewBox="0 0 72.093 74.961" enable-background="new 0 0 72.093 74.961" xml:space="preserve">
<g>
	<path fill="#ffffff" d="M2.923,56.486c0.895-1.168,1.789-2.334,2.682-3.498c6.695,8.004,15.376,16.01,26.703,16.74l3.814,5.232
		c1.205-1.666,2.409-3.258,3.614-4.926c11.186-0.721,20.355-9.217,26.754-17.047c0.895,1.164,1.787,2.33,2.682,3.498
		c1.941-5.766,2.854-11.854,2.68-17.969c-2.789,3.215-5.365,6.785-9.648,7.709c0.598,0.701,1.195,1.402,1.791,2.105
		c-6.746,6.008-15.889,10.033-24.834,10.033c-0.107,0-0.215,0-0.322-0.002L38.831,48.05c-0.295,0.066-0.592,0.13-0.9,0.176v2.462v1
		h-1h-1.619h-1v-1v-2.443c-0.391-0.059-0.75-0.131-1.104-0.206c-0.008,3.442-0.016,6.884-0.024,10.325
		c-0.12,0.002-0.242,0.002-0.361,0.002c-8.929,0-17.435-3.592-24.729-10.033c0.599-0.703,1.199-1.404,1.798-2.105
		c-4.19-0.904-6.904-4.553-9.649-7.709C0.069,44.639,0.979,50.715,2.923,56.486z"/>
	<path fill="#ffffff" d="M21.707,19.631l11.569,0.006c-0.001,0.687-0.003,1.374-0.005,2.06c0.312-0.061,0.658-0.113,1.041-0.159v-1.311v-1h1h1.619
		h1v1v1.358c0.311,0.045,0.602,0.107,0.889,0.172v-2.12l12.373-0.01c0.662,0.953,1.73,1.572,2.938,1.572
		c4.779,0,4.779-7.656,0-7.656c-1.168,0-2.205,0.578-2.869,1.477H38.255c-0.002-0.854-0.008-1.498,0.025-2.127
		c6.414-0.83,6.217-12.57-2.106-12.635c-0.02,0-0.039,0-0.059,0c-7.482,0-9.32,11.049-2.309,12.652v2.078H21.619
		c-0.666-0.883-1.693-1.445-2.847-1.445c-4.779,0-4.779,7.656,0,7.656C19.979,21.199,21.045,20.582,21.707,19.631z M32.813,6.674
		c0-1.832,1.518-3.318,3.256-3.318c1.743,0,3.293,1.373,3.293,3.205c0,1.834-1.588,3.582-3.329,3.582
		C34.295,10.143,32.813,8.506,32.813,6.674z"/>
	<path fill="#ffffff" d="M30.404,45.93c0.485,0.319,1.098,0.585,1.807,0.812c0.309,0.099,0.648,0.185,1,0.265c0.639,0.146,1.322,0.273,2.101,0.359
		v3.322h1.619v-3.355c0.673-0.053,1.298-0.169,1.9-0.319c0.346-0.086,0.678-0.188,1-0.307c0.555-0.204,1.086-0.442,1.572-0.743
		c2.059-1.268,3.088-3.303,3.088-6.107c0-2.125-0.748-3.773-2.242-4.941c-0.521-0.401-1.336-0.84-2.424-1.312
		c-0.312-0.135-0.641-0.272-1-0.413c-0.572-0.226-1.201-0.458-1.894-0.697v-6.357c0.82,0.057,1.451,0.315,1.89,0.771
		c0.15,0.154,0.279,0.332,0.385,0.532c0.242,0.455,0.408,1.18,0.496,2.168h0.121h4.268c-0.066-2.67-1.037-4.6-2.906-5.791
		c-0.393-0.284-0.859-0.511-1.365-0.708c-0.311-0.121-0.645-0.227-1-0.314c-0.578-0.145-1.195-0.258-1.888-0.313v-2.252h-1.619
		v2.219c-0.827,0.063-1.506,0.157-2.043,0.274c-0.2,0.044-0.384,0.091-0.544,0.142c-0.156,0.049-0.306,0.114-0.457,0.176
		c-0.788,0.319-1.517,0.799-2.181,1.461c-0.61,0.611-1.087,1.34-1.426,2.188c-0.34,0.846-0.509,1.785-0.509,2.82
		c0,1.568,0.437,2.91,1.31,4.021c0.614,0.782,1.544,1.442,2.776,1.982c0.315,0.138,0.645,0.271,1,0.393
		c0.232,0.08,0.472,0.157,0.722,0.23l1.353,0.4v7.127c-0.918-0.161-1.61-0.464-2.091-0.898c-0.184-0.166-0.343-0.347-0.463-0.553
		c-0.213-0.367-0.39-1.012-0.532-1.921c-0.043-0.276-0.083-0.573-0.12-0.899h-4.506C27.566,42.469,28.501,44.65,30.404,45.93z
		 M36.931,37.084c0.876,0.327,1.505,0.646,1.896,0.952c0.02,0.016,0.049,0.032,0.066,0.048c0.541,0.462,0.844,1.072,0.934,1.812
		c0.02,0.15,0.041,0.298,0.041,0.46c0,0.197-0.023,0.368-0.041,0.547c-0.09,0.961-0.412,1.674-0.998,2.105
		c0,0.001,0,0.001-0.002,0.002c-0.395,0.291-1.027,0.49-1.896,0.6V37.084z M33.509,31.191c-0.099-0.077-0.175-0.167-0.26-0.252
		c-0.517-0.515-0.792-1.165-0.792-1.967c0-0.857,0.233-1.535,0.701-2.029c0.03-0.031,0.069-0.054,0.101-0.083
		c0.468-0.436,1.146-0.674,2.053-0.692v5.857C34.5,31.771,33.899,31.492,33.509,31.191z"/>
	<path fill="#ffffff" d="M38.827,39.879c-0.076-0.428-0.264-0.761-0.574-1.026c-0.062-0.053-0.164-0.127-0.322-0.221v3.73
		c0.152-0.06,0.246-0.115,0.305-0.158c0.314-0.232,0.514-0.64,0.594-1.216L38.827,39.879z"/>
	<path fill="#ffffff" d="M33.458,28.973c0,0.622,0.211,1.076,0.663,1.427c0.05,0.039,0.113,0.082,0.192,0.13v-3.182
		c-0.175,0.072-0.317,0.167-0.427,0.283C33.597,27.935,33.458,28.373,33.458,28.973z"/>
	<path fill="#ffffff" d="M43.073,3.595c5.516,1.163,10.523,3.652,14.637,7.123l-1.893,1.892c-0.055,0.055-0.092,0.118-0.137,0.178
		c1.199,0.404,2.051,1.276,2.541,2.329c0.018-0.017,0.039-0.028,0.057-0.046l1.975-1.973c5.094,5.315,8.355,12.301,8.787,20.006
		h-3.293c-0.637,0-1.188,0.344-1.492,0.855h-3.143c-0.164-4.707-1.652-9.069-4.072-12.772c-0.678,0.57-1.559,0.943-2.633,0.998
		c2.338,3.377,3.791,7.407,3.961,11.774h-2.031c-0.215-4.936-2.193-9.42-5.324-12.832l0.113-0.113
		c-0.141-0.126-0.291-0.242-0.418-0.387l-2.172,0.002c0.086,0.072,0.174,0.14,0.258,0.215l-4.686,4.687
		c0.297,0.551,0.527,1.154,0.689,1.811l5.246-5.245c2.883,3.162,4.711,7.305,4.922,11.863H42.622
		c0.08,0.056,0.172,0.112,0.242,0.167c0.598,0.467,1.086,1.004,1.48,1.601h10.621c-0.211,4.557-2.039,8.699-4.924,11.863
		l-4.938-4.94c-0.186,0.63-0.439,1.211-0.76,1.742l4.449,4.448c-2.475,2.257-5.557,3.839-8.961,4.531l0.002,1.396
		c3.777-0.717,7.199-2.455,9.928-4.957l1.436,1.436c-3.102,2.869-7.023,4.842-11.363,5.587v0.524
		c3.535-0.084,7.195-0.833,10.758-2.142c0.889-0.628,1.75-1.291,2.543-2.032l0.68,0.679c0.561-0.266,1.117-0.543,1.67-0.836
		l-1.096-1.095c3.992-4.281,6.504-9.955,6.723-16.205h3.145c0.303,0.51,0.854,0.855,1.49,0.855h3.297
		c-0.08,1.46-0.271,2.891-0.551,4.292c0.549-0.606,1.09-1.238,1.637-1.882c0.32-0.379,0.643-0.758,0.965-1.131l0.93-1.069
		c0.039-0.641,0.068-1.281,0.068-1.931c0-18.106-14.227-33.03-32.389-34.819C41.306,0.82,42.419,2.11,43.073,3.595z M52.45,49.996
		l-1.436-1.438c3.129-3.414,5.109-7.898,5.322-12.832h2.033C58.153,41.223,55.946,46.211,52.45,49.996z"/>
	<path fill="#ffffff" d="M0.997,37.861c0.292,0.334,0.583,0.676,0.875,1.018c0.564,0.66,1.134,1.325,1.719,1.966
		c-0.274-1.393-0.463-2.812-0.542-4.263h3.296c0.636,0,1.187-0.346,1.491-0.855h3.144c0.217,6.25,2.73,11.926,6.723,16.205
		l-1.149,1.149c0.548,0.298,1.101,0.579,1.656,0.848l0.745-0.745c0.878,0.819,1.827,1.561,2.819,2.243
		c3.394,1.208,6.886,1.863,10.412,1.933l0.001-0.54c-4.311-0.754-8.208-2.721-11.293-5.573l1.437-1.436
		c2.711,2.485,6.109,4.219,9.862,4.943l0.003-1.396c-3.378-0.7-6.437-2.276-8.897-4.519l4.415-4.414
		c-0.302-0.54-0.545-1.131-0.724-1.778l-4.942,4.942c-2.883-3.164-4.711-7.307-4.92-11.863h12.973
		c0.147,0.985,0.534,1.893,1.098,2.662h0.908h0.124h0.771l0.099,0.89c0.041,0.364,0.083,0.666,0.126,0.933
		c0.159,0.985,0.322,1.368,0.396,1.495c0.14,0.241,0.371,0.443,0.689,0.606V37.28l-0.634-0.188
		c-0.153-0.045-0.296-0.095-0.443-0.143c-0.348-0.111-0.683-0.23-1-0.357c-1.583-0.637-2.781-1.455-3.56-2.447
		c-0.046-0.059-0.078-0.127-0.122-0.187H17.128c0.21-4.559,2.037-8.701,4.92-11.863l5.341,5.341
		c0.091-0.388,0.199-0.766,0.343-1.123c0.098-0.244,0.207-0.481,0.326-0.711l-4.759-4.759c0.081-0.074,0.169-0.141,0.253-0.212
		l-1.361-0.001c-0.477,0.54-1.069,0.944-1.716,1.212c-2.772,3.314-4.521,7.514-4.72,12.116h-2.033
		c0.174-4.405,1.65-8.469,4.022-11.862c-0.938-0.194-1.739-0.669-2.364-1.391c-2.612,3.803-4.23,8.339-4.402,13.253H7.837
		c-0.304-0.51-0.854-0.855-1.491-0.855H3.052c0.433-7.706,3.692-14.691,8.788-20.007l1.974,1.974
		c0.206,0.206,0.453,0.341,0.712,0.419c0.377-1.016,1.071-1.898,2.068-2.427c-0.077-0.163-0.182-0.317-0.318-0.453l-1.894-1.893
		c4.183-3.528,9.291-6.039,14.916-7.176C30.035,2.056,31.226,0.766,32.811,0C14.447,1.595,0,16.614,0,34.861
		c0,0.649,0.029,1.292,0.069,1.933L0.997,37.861z M15.756,35.727c0.212,4.936,2.192,9.418,5.323,12.832l-1.436,1.438
		c-3.496-3.785-5.703-8.773-5.919-14.27H15.756z"/>
	<path fill="#ffffff" d="M28.089,13.988c1.083-0.413,2.21-0.735,3.366-0.978c-0.957-0.592-1.675-1.381-2.167-2.281
		c-2.552,0.715-4.934,1.822-7.088,3.259H28.089z"/>
	<path fill="#ffffff" d="M40.874,31.266l0.66-0.66h-1.711v1.911c0.828,0.344,1.508,0.672,2.072,0.99C41.708,32.684,41.362,31.923,40.874,31.266z"/>
	<path fill="#ffffff" d="M42.868,10.749c-0.494,0.924-1.189,1.724-2.09,2.292c1.135,0.245,2.24,0.567,3.305,0.979h5.846
		C47.782,12.583,45.413,11.47,42.868,10.749z"/>
	<path fill="#ffffff" d="M38.706,29.693c-0.1-1.113-0.283-1.598-0.385-1.789c-0.074-0.143-0.188-0.309-0.391-0.451v4.332
		c0.312,0.112,0.609,0.222,0.895,0.331l-0.002-1.511h-0.037L38.706,29.693z"/>
</g>
</svg>
