<?xml version="1.0" encoding="utf-8"?>
<!-- Generator: Adobe Illustrator 16.0.0, SVG Export Plug-In . SVG Version: 6.00 Build 0)  -->
<!DOCTYPE svg PUBLIC "-//W3C//DTD SVG 1.1//EN" "http://www.w3.org/Graphics/SVG/1.1/DTD/svg11.dtd">
<svg version="1.2" xmlns="http://www.w3.org/2000/svg" xmlns:xlink="http://www.w3.org/1999/xlink" x="0px" y="0px"
	 viewBox="0 0 70.797 70.797" style="enable-background:new 0 0 70.797 70.797;"
	 xml:space="preserve">
<g id="background">
	<path style="fill:#FFE132;" d="M35.397,70.797c19.601,0,35.399-15.899,35.399-35.399C70.797,15.799,54.896,0,35.397,0
		S0,15.8,0,35.397C-0.001,54.997,15.898,70.797,35.397,70.797"/>
</g>
<g id="icon">
	<g>
		<path style="fill:#25214C;" d="M52.497,40.498L52.497,40.498L52.497,40.498c-0.101-1.9-1-3.602-2.4-4.7l0,0l0,0
			c-0.199-0.2-0.398-0.3-0.6-0.4l-2.601-1.698l-5.1,2.898l-2.9-17.199c0.2-0.199,0.3-0.399,0.3-0.699c0-0.5-0.398-0.9-0.898-0.9
			h-5.602c-0.5,0-0.898,0.4-0.898,0.9c0,0.3,0.1,0.5,0.3,0.699l-2.898,17.199l-5.102-2.898l-2.6,1.698
			c-0.2,0.102-0.4,0.301-0.601,0.4l0,0l0,0c-1.399,1.1-2.301,2.7-2.399,4.6l0,0l0,0v0.102l1.1,7.999l0,0l14.101-4.699l-1.699-0.7
			l0.898-4.5l-2.398-1.399L33.397,19.5h1.3v9.6h-1.8l-1.3,7.4l2.4,1.398l-0.9,4.5l2.4,1.101l2.398-1.101l-0.899-4.5l2.399-1.398
			l-1.3-7.4h-1.8v-9.6h1.3l2.899,17.699l-2.399,1.399l0.899,4.5l-1.699,0.7l14.1,4.699l0,0L52.497,40.498L52.497,40.498"/>
	</g>
</g>
</svg>
