<svg version="1.1" id="Layer_1" xmlns="http://www.w3.org/2000/svg" xmlns:xlink="http://www.w3.org/1999/xlink" x="0px" y="0px"
	 width="213.141px" height="74.968px" viewBox="0 0 213.141 74.968" enable-background="new 0 0 213.141 74.968"
	 xml:space="preserve">
<g>
	<g>
		<path fill="#FFFFFF" d="M82.244,31.89h2.448c0.646,0,0.918-0.306,0.918-0.918V10.778c0-0.646-0.272-0.918-0.918-0.918h-2.448
			V8.772h9.859V9.86h-2.448c-0.646,0-0.918,0.272-0.918,0.918v20.194c0,0.612,0.272,0.918,0.918,0.918h2.448v1.088h-9.859V31.89z"/>
		<path fill="#FFFFFF" d="M96.64,8.772h18.971l0.135,7.684h-0.85c0,0-0.033-2.55-1.394-4.623c-1.054-1.599-2.618-1.973-3.978-1.973
			h-5.474c-0.646,0-0.918,0.272-0.918,0.918v9.281h2.992c2.618,0,2.788-2.72,2.788-4.691h0.884v10.641h-0.884
			c0-2.006-0.17-4.725-2.788-4.725h-2.992v9.688c0,0.612,0.272,0.918,0.918,0.918h2.992v1.088H96.843V31.89h2.244
			c0.646,0,0.918-0.306,0.918-0.918V10.778c0-0.646-0.272-0.918-0.918-0.918H96.64V8.772z"/>
		<path fill="#FFFFFF" d="M128.414,8.161c1.734,0,3.332,0.918,4.216,1.563c0.408,0.272,0.681,0.477,0.884,0.646
			c0.374,0.34,0.646,0.476,0.952,0.476c0.374,0,0.476-0.238,0.681-0.748l0.577-1.666h0.851v9.451h-0.851
			c-1.563-5.779-4.624-8.635-7.31-8.635c-4.895,0-5.915,4.487-5.915,11.423s1.224,11.831,6.46,11.831
			c4.725,0,6.662-4.25,6.935-8.329h1.224c-0.136,3.195-1.631,9.417-8.158,9.417c-6.596,0-10.063-6.527-10.063-12.919
			C118.896,13.872,122.432,8.161,128.414,8.161z"/>
		<path fill="#FFFFFF" d="M141.403,31.89h2.448c0.646,0,0.918-0.306,0.918-0.918V10.778c0-0.611-0.272-0.918-0.918-0.918h-2.448
			V8.772h9.858V9.86h-2.447c-0.646,0-0.918,0.307-0.918,0.918v8.873h10.268v-8.873c0-0.611-0.273-0.918-0.918-0.918h-2.448V8.772
			h9.858V9.86h-2.447c-0.646,0-0.918,0.307-0.918,0.918v20.194c0,0.612,0.271,0.918,0.918,0.918h2.447v1.088h-9.858V31.89h2.448
			c0.645,0,0.918-0.306,0.918-0.918V20.875h-10.268v10.097c0,0.612,0.271,0.918,0.918,0.918h2.447v1.088h-9.858V31.89z"/>
		<path fill="#FFFFFF" d="M178.326,8.161c5.916,0,9.859,6.289,9.859,12.715c0,6.425-3.943,12.715-9.859,12.715
			s-9.859-6.29-9.859-12.715C168.467,14.45,172.41,8.161,178.326,8.161z M178.326,32.502c4.691,0,6.256-4.691,6.256-11.627
			s-1.564-11.627-6.256-11.627s-6.256,4.691-6.256,11.627S173.635,32.502,178.326,32.502z"/>
		<path fill="#FFFFFF" d="M191.994,31.89h2.449c0.645,0,0.918-0.306,0.918-0.918V10.778c0-0.646-0.273-0.918-0.918-0.918h-2.449
			V8.772h11.152c3.842,0,7.512,1.19,7.512,5.439c0,3.536-3.16,5.508-6.424,5.848v0.137c2.209,0.407,4.215,1.631,4.826,6.595
			c0.443,3.536,0.646,4.42,1.768,4.42c1.293,0,1.463-2.244,1.463-3.672h0.85c0,1.563-0.033,5.848-3.535,5.848
			c-1.463,0-2.482-0.442-3.094-1.598c-0.748-1.429-0.951-3.74-0.986-6.018c-0.033-2.686-0.85-5.304-3.332-5.304h-3.705v10.505
			c0,0.612,0.203,0.918,0.918,0.918h3.025v1.088h-10.438V31.89z M201.785,19.379c4.047,0,5.27-2.21,5.27-5.168
			c0-2.821-1.631-4.352-4.113-4.352h-3.535c-0.646,0-0.918,0.272-0.918,0.918v8.602H201.785z"/>
	</g>
	<g>
		<path fill="#FFFFFF" d="M83.696,40.22c0.13,1.499,1.249,2.919,2.389,2.919c1.199,0,1.569-0.72,1.569-1.359
			c0-0.72-0.5-1.02-1.119-1.27l-1.52-0.609c-1.079-0.43-1.539-1.119-1.539-2.039c0-1.379,0.959-1.879,1.959-1.879
			c0.66,0,1.259,0.449,1.459,0.6c0.13,0.09,0.26,0.18,0.379,0.18c0.13,0,0.18-0.1,0.2-0.239l0.04-0.36h0.24l0.1,2.599h-0.24
			c-0.32-1.459-1.279-2.459-2.259-2.459c-0.709,0-1.279,0.48-1.279,1.38c0,0.64,0.38,0.919,0.91,1.129l1.929,0.77
			c0.95,0.38,1.339,1.149,1.339,1.819c0,0.989-0.64,2.059-2.168,2.059c-0.64,0-1.25-0.38-1.529-0.59
			c-0.25-0.189-0.43-0.319-0.5-0.319c-0.17,0-0.229,0.21-0.26,0.43l-0.04,0.399h-0.229l-0.07-3.158H83.696z"/>
		<path fill="#FFFFFF" d="M91.801,42.959h0.72c0.19,0,0.27-0.091,0.27-0.271v-5.937c0-0.18-0.08-0.27-0.27-0.27h-0.72v-0.32H94.7
			v0.32h-0.72c-0.19,0-0.27,0.09-0.27,0.27v2.608h3.018v-2.608c0-0.18-0.08-0.27-0.27-0.27h-0.719v-0.32h2.898v0.32h-0.72
			c-0.19,0-0.27,0.09-0.27,0.27v5.937c0,0.18,0.08,0.271,0.27,0.271h0.72v0.319h-2.898v-0.319h0.719c0.19,0,0.27-0.091,0.27-0.271
			v-2.968H93.71v2.968c0,0.18,0.08,0.271,0.27,0.271h0.72v0.319h-2.898V42.959z"/>
		<path fill="#FFFFFF" d="M102.086,42.959h0.72c0.19,0,0.27-0.091,0.27-0.271v-5.937c0-0.189-0.08-0.27-0.27-0.27h-0.72v-0.32h2.898
			v0.32h-0.72c-0.19,0-0.27,0.08-0.27,0.27v5.937c0,0.18,0.08,0.271,0.27,0.271h0.72v0.319h-2.898V42.959z"/>
		<path fill="#FFFFFF" d="M108.432,42.959h0.72c0.19,0,0.27-0.091,0.27-0.271v-5.937c0-0.189-0.08-0.27-0.27-0.27h-0.72v-0.32h3.338
			c1.419,0,2.398,0.76,2.398,1.859s-0.979,1.898-2.398,1.898h-1.429v2.769c0,0.18,0.06,0.271,0.27,0.271h0.88v0.319h-3.059V42.959z
			 M111.9,39.601c0.749,0,1.209-0.75,1.209-1.579c0-0.83-0.46-1.539-1.209-1.539h-1.29c-0.19,0-0.27,0.08-0.27,0.27v2.849H111.9z"/>
		<path fill="#FFFFFF" d="M117.638,42.959h0.72c0.189,0,0.27-0.091,0.27-0.271v-5.937c0-0.189-0.08-0.27-0.27-0.27h-0.72v-0.32
			h3.259c1.189,0,2.238,0.7,2.238,1.699c0,0.97-0.8,1.539-1.529,1.689v0.04c0.789,0.06,1.749,0.709,1.749,1.749
			c0,1.259-1.089,1.938-2.349,1.938h-3.368V42.959z M120.855,39.401c1.18,0,1.4-0.729,1.4-1.539s-0.59-1.379-1.32-1.379h-1.119
			c-0.189,0-0.27,0.08-0.27,0.27v2.648H120.855z M119.816,42.959h1.08c0.689,0,1.398-0.32,1.398-1.619
			c0-1.3-0.699-1.619-1.398-1.619h-1.35v2.968C119.547,42.869,119.627,42.959,119.816,42.959z"/>
		<path fill="#FFFFFF" d="M126.943,42.959h0.72c0.19,0,0.27-0.091,0.27-0.271v-5.937c0-0.189-0.079-0.27-0.27-0.27h-0.72v-0.32
			h3.278c1.13,0,2.208,0.35,2.208,1.6c0,1.039-0.929,1.619-1.889,1.719v0.04c0.65,0.12,1.24,0.479,1.42,1.938
			c0.129,1.04,0.189,1.3,0.52,1.3c0.38,0,0.43-0.66,0.43-1.079h0.25c0,0.459-0.01,1.719-1.039,1.719c-0.43,0-0.73-0.13-0.91-0.47
			c-0.22-0.42-0.279-1.1-0.289-1.77c-0.011-0.789-0.25-1.559-0.98-1.559h-1.089v3.088c0,0.18,0.06,0.271,0.27,0.271h0.89v0.319
			h-3.068V42.959z M129.822,39.281c1.189,0,1.549-0.649,1.549-1.519c0-0.83-0.48-1.279-1.209-1.279h-1.04
			c-0.19,0-0.27,0.08-0.27,0.27v2.528H129.822z"/>
		<path fill="#FFFFFF" d="M139.486,35.983c1.74,0,2.898,1.849,2.898,3.738c0,1.889-1.158,3.737-2.898,3.737
			c-1.738,0-2.898-1.849-2.898-3.737C136.588,37.832,137.748,35.983,139.486,35.983z M139.486,43.139c1.379,0,1.84-1.38,1.84-3.418
			c0-2.039-0.461-3.419-1.84-3.419s-1.838,1.38-1.838,3.419C137.648,41.759,138.107,43.139,139.486,43.139z"/>
		<path fill="#FFFFFF" d="M145.914,42.959h0.719c0.191,0,0.271-0.091,0.271-0.271v-5.937c0-0.189-0.08-0.27-0.271-0.27h-0.719v-0.32
			h2.848v0.32h-0.668c-0.191,0-0.271,0.08-0.271,0.27v3.099l2.299-2.349c0.17-0.181,0.25-0.351,0.25-0.601
			c0-0.239-0.189-0.419-0.449-0.419h-0.27v-0.32h2.639v0.32h-0.4c-0.279,0-0.66,0.34-0.898,0.589l-1.68,1.699l2.039,3.748
			c0.17,0.32,0.34,0.44,0.75,0.44h0.328v0.319h-3.018v-0.319h0.67c0.15,0,0.27-0.101,0.27-0.21c0-0.061-0.029-0.19-0.07-0.25
			l-1.629-3.059l-0.83,0.84v2.408c0,0.18,0.08,0.271,0.271,0.271h0.668v0.319h-2.848V42.959z"/>
		<path fill="#FFFFFF" d="M155.881,42.959h0.719c0.189,0,0.27-0.091,0.27-0.271v-5.937c0-0.189-0.08-0.27-0.27-0.27h-0.719v-0.32
			h5.576l0.039,2.259h-0.25c0,0-0.008-0.751-0.408-1.359c-0.311-0.47-0.77-0.579-1.17-0.579h-1.609c-0.189,0-0.27,0.08-0.27,0.27
			v2.729h0.879c0.77,0,0.82-0.8,0.82-1.379h0.26v3.128h-0.26c0-0.59-0.051-1.39-0.82-1.39h-0.879v2.849
			c0,0.18,0.08,0.271,0.27,0.271h1.6c0.289,0,0.799-0.12,1.1-0.51c0.459-0.62,0.568-1.85,0.568-1.85h0.25l-0.119,2.679h-5.576
			V42.959z"/>
		<path fill="#FFFFFF" d="M165.186,42.959h0.719c0.189,0,0.27-0.091,0.27-0.271v-5.937c0-0.189-0.08-0.27-0.27-0.27h-0.719v-0.32
			h3.277c1.129,0,2.209,0.35,2.209,1.6c0,1.039-0.93,1.619-1.889,1.719v0.04c0.648,0.12,1.238,0.479,1.418,1.938
			c0.131,1.04,0.191,1.3,0.52,1.3c0.381,0,0.43-0.66,0.43-1.079h0.25c0,0.459-0.01,1.719-1.039,1.719c-0.43,0-0.729-0.13-0.908-0.47
			c-0.221-0.42-0.281-1.1-0.291-1.77c-0.01-0.789-0.25-1.559-0.979-1.559h-1.09v3.088c0,0.18,0.061,0.271,0.27,0.271h0.889v0.319
			h-3.066V42.959z M168.062,39.281c1.189,0,1.549-0.649,1.549-1.519c0-0.83-0.479-1.279-1.209-1.279h-1.039
			c-0.189,0-0.27,0.08-0.27,0.27v2.528H168.062z"/>
		<path fill="#FFFFFF" d="M175.25,40.22c0.131,1.499,1.25,2.919,2.389,2.919c1.199,0,1.57-0.72,1.57-1.359
			c0-0.72-0.5-1.02-1.119-1.27l-1.52-0.609c-1.08-0.43-1.539-1.119-1.539-2.039c0-1.379,0.959-1.879,1.959-1.879
			c0.66,0,1.26,0.449,1.459,0.6c0.129,0.09,0.26,0.18,0.379,0.18c0.131,0,0.18-0.1,0.201-0.239l0.039-0.36h0.24l0.1,2.599h-0.24
			c-0.318-1.459-1.279-2.459-2.258-2.459c-0.709,0-1.279,0.48-1.279,1.38c0,0.64,0.379,0.919,0.908,1.129l1.93,0.77
			c0.949,0.38,1.34,1.149,1.34,1.819c0,0.989-0.641,2.059-2.17,2.059c-0.639,0-1.248-0.38-1.529-0.59
			c-0.248-0.189-0.43-0.319-0.498-0.319c-0.17,0-0.23,0.21-0.26,0.43l-0.041,0.399h-0.23l-0.068-3.158H175.25z"/>
	</g>
</g>
<g>
	<path fill="#FFFFFF" d="M62.088,47.643c-0.177,0.491-0.364,0.975-0.561,1.454c0.358-0.283,0.714-0.568,1.063-0.863L62.088,47.643z"
		/>
	<path fill="#FFFFFF" d="M0.997,37.868c0.292,0.335,0.583,0.676,0.875,1.019c0.568,0.666,1.143,1.335,1.732,1.98
		c-0.351-1.787-0.562-3.621-0.592-5.499h3.773c0.033,2.606,0.317,5.143,0.83,7.577c-0.537,0.068-1.07,0.146-1.604,0.219
		c0.382,0.308,0.777,0.591,1.184,0.849c0.214-0.028,0.427-0.06,0.642-0.087c0.044,0.184,0.102,0.361,0.148,0.544
		c0.378,0.195,0.769,0.362,1.173,0.502c-0.107-0.389-0.227-0.772-0.322-1.168c1.466-0.18,2.938-0.345,4.414-0.495
		c0.51,2.879,1.279,5.607,2.262,8.141c-0.37,0.116-0.735,0.254-1.104,0.376c0.371,0.233,0.744,0.458,1.119,0.677
		c0.119-0.038,0.237-0.084,0.356-0.121c0.063,0.152,0.135,0.296,0.201,0.447c0.473,0.266,0.948,0.521,1.426,0.764
		c-0.231-0.49-0.46-0.984-0.673-1.493c1.196-0.354,2.398-0.675,3.605-0.963c0.437,1.528,0.938,2.976,1.488,4.35
		c0.396,0.139,0.794,0.268,1.193,0.392c-0.649-1.546-1.23-3.208-1.73-4.971c1.309-0.292,2.623-0.554,3.943-0.767
		c0.363,2.107,0.801,4.082,1.304,5.903c-0.418,0.138-0.835,0.291-1.252,0.447c0.872,0.206,1.748,0.378,2.627,0.511
		c-0.03-0.1-0.063-0.193-0.094-0.294c1.047-0.307,2.098-0.572,3.155-0.76c0.065,0.47,0.135,0.924,0.205,1.377
		c0.301,0.015,0.603,0.033,0.905,0.039l0.001-0.572c-0.049-0.324-0.1-0.636-0.146-0.974c0.049-0.007,0.099-0.01,0.148-0.017
		l0.002-1.029c-0.095,0.013-0.192,0.018-0.287,0.032c-0.21-1.634-0.398-3.417-0.557-5.339c0.285-0.02,0.571-0.031,0.857-0.048
		l0.002-1.001c-0.312,0.019-0.625,0.031-0.938,0.053c-0.147-1.949-0.267-4.033-0.349-6.255c0.434-0.01,0.868-0.009,1.301-0.017
		l0.002-0.999c-0.445,0.008-0.891,0.007-1.336,0.017c-0.059-1.859-0.092-3.809-0.097-5.848h1.447l0.002-1h-1.449
		c0.004-2.035,0.038-3.981,0.096-5.837c0.455,0.01,0.911,0.01,1.367,0.018l0.002-1.01c-0.445-0.007-0.891-0.007-1.336-0.017
		c0.082-2.223,0.201-4.307,0.349-6.256c0.333,0.023,0.668,0.037,1.002,0.057l0.001-0.679l-7.107-0.004
		c-0.332,2.104-0.592,4.323-0.771,6.643c-1.548-0.08-3.094-0.172-4.636-0.283c0.227-1.816,0.555-3.546,0.927-5.231
		c-0.351,0.166-0.722,0.278-1.104,0.349c-0.329,1.551-0.606,3.152-0.814,4.807c-1.511-0.116-3.019-0.249-4.522-0.395
		c0.345-1.936,0.817-3.795,1.386-5.575c-0.104-0.103-0.22-0.189-0.316-0.304c-0.161-0.194-0.3-0.407-0.429-0.626
		c-0.686,2.032-1.241,4.171-1.637,6.404c-1.476-0.15-2.947-0.315-4.414-0.495c0.757-3.139,1.901-6.088,3.37-8.775
		c0.67,0.247,1.346,0.463,2.021,0.689c-0.013-0.157-0.038-0.31-0.038-0.47c0-0.196,0.015-0.393,0.036-0.588
		c-0.507-0.173-1.018-0.333-1.522-0.517c1.498-2.558,3.294-4.859,5.333-6.832c0.543,0.361,1.089,0.706,1.637,1.034
		c-0.476,0.668-0.926,1.375-1.362,2.098c0.151-0.013,0.304-0.023,0.463-0.023c0.223,0,0.438,0.036,0.655,0.067
		c0.354-0.566,0.718-1.117,1.098-1.646c0.763,0.43,1.531,0.825,2.302,1.19c-0.272,0.581-0.531,1.185-0.783,1.8
		c0.012,0.013,0.027,0.021,0.039,0.034h0.981c0.204-0.491,0.415-0.971,0.632-1.438c0.976,0.429,1.958,0.808,2.945,1.133
		c-0.027,0.099-0.053,0.204-0.08,0.304h6.172c-0.23-0.028-0.461-0.046-0.691-0.079c0.027-0.191,0.056-0.365,0.083-0.552
		c-0.326-0.153-0.629-0.323-0.908-0.516c-0.046,0.312-0.095,0.618-0.139,0.938c-1.058-0.188-2.108-0.453-3.155-0.76
		c0.321-1.081,0.667-2.087,1.03-3.038c-0.211-0.534-0.364-1.086-0.445-1.651c-0.575,1.318-1.109,2.77-1.586,4.371
		c-0.933-0.309-1.861-0.659-2.784-1.064c1.21-2.403,2.606-4.439,4.142-6.025c0.091,0.053,0.184,0.095,0.275,0.146
		c0.434-2.355,1.92-4.637,4.271-5.766C14.453,1.589,0,16.616,0,34.869c0,0.644,0.021,1.282,0.056,1.917L0.997,37.868z M25.41,42.409
		c1.507-0.07,3.015-0.126,4.525-0.167c0.084,2.145,0.205,4.261,0.362,6.305c-1.371,0.116-2.737,0.267-4.097,0.465
		C25.86,46.918,25.596,44.705,25.41,42.409z M30.945,54.957c-1.107,0.195-2.208,0.458-3.304,0.779
		C27.155,53.964,26.729,52.04,26.37,50c1.332-0.193,2.668-0.342,4.009-0.455C30.537,51.428,30.726,53.243,30.945,54.957z
		 M26.2,20.724c1.36,0.198,2.727,0.35,4.097,0.465c-0.157,2.044-0.278,4.16-0.362,6.305c-1.51-0.041-3.019-0.096-4.525-0.167
		C25.596,25.033,25.86,22.819,26.2,20.724z M25.331,28.334c1.521,0.072,3.042,0.129,4.566,0.17
		c-0.066,1.947-0.101,3.911-0.106,5.865H25.11C25.121,32.313,25.194,30.294,25.331,28.334z M29.791,35.369
		c0.005,1.957,0.041,3.925,0.107,5.875c-1.524,0.041-3.046,0.097-4.566,0.168c-0.137-1.963-0.211-3.985-0.222-6.044H29.791z
		 M25.174,49.157c-1.354,0.218-2.701,0.488-4.042,0.788c-0.593-2.264-1.058-4.677-1.373-7.206c1.542-0.111,3.088-0.204,4.636-0.283
		C24.576,44.796,24.838,47.038,25.174,49.157z M19.641,28c1.557,0.113,3.118,0.207,4.681,0.288c-0.13,1.967-0.203,3.999-0.212,6.081
		h-4.83C19.296,32.188,19.419,30.059,19.641,28z M24.11,35.369c0.01,2.086,0.082,4.121,0.213,6.09
		c-1.563,0.081-3.124,0.174-4.681,0.286c-0.223-2.062-0.346-4.193-0.362-6.376H24.11z M18.768,42.813
		c0.324,2.58,0.801,5.044,1.414,7.36c-1.245,0.297-2.483,0.629-3.716,0.996c-0.963-2.474-1.718-5.142-2.22-7.96
		C15.749,43.062,17.256,42.929,18.768,42.813z M14.085,27.521c1.517,0.148,3.038,0.284,4.562,0.401
		c-0.227,2.085-0.35,4.241-0.367,6.446h-4.756C13.548,32.019,13.741,29.729,14.085,27.521z M18.28,35.369
		c0.017,2.207,0.14,4.365,0.368,6.452c-1.525,0.117-3.045,0.251-4.562,0.399c-0.344-2.209-0.537-4.5-0.561-6.851H18.28z
		 M8.61,42.825c-0.509-2.394-0.791-4.89-0.824-7.456h4.738c0.024,2.385,0.219,4.709,0.567,6.953
		C11.593,42.474,10.1,42.642,8.61,42.825z M13.091,27.419c-0.348,2.242-0.542,4.565-0.566,6.949H7.786
		c0.033-2.565,0.315-5.061,0.824-7.454C10.099,27.098,11.593,27.266,13.091,27.419z M28.715,3.657
		C28.838,3.63,28.96,3.6,29.084,3.574c-0.312,0.255-0.618,0.531-0.92,0.818c-0.121-0.075-0.24-0.163-0.36-0.242
		C28.105,3.977,28.409,3.812,28.715,3.657z M27.444,5.116c-1.548,1.646-2.952,3.721-4.173,6.141
		c-0.719-0.339-1.435-0.698-2.146-1.095c1.705-2.213,3.639-4.052,5.744-5.433C27.06,4.86,27.251,4.992,27.444,5.116z M23.672,5.19
		c0.554-0.217,1.115-0.419,1.683-0.608c-1.846,1.368-3.555,3.071-5.08,5.065c-0.496-0.295-0.994-0.579-1.487-0.902
		C20.303,7.377,21.937,6.181,23.672,5.19z M18.164,7.966c-0.07,0.063-0.139,0.127-0.208,0.19c-0.016-0.01-0.031-0.021-0.046-0.032
		C17.994,8.071,18.08,8.02,18.164,7.966z M16.996,8.732c0.067,0.047,0.135,0.093,0.202,0.14c-2.087,2.046-3.927,4.421-5.456,7.062
		c-0.588-0.225-1.169-0.479-1.753-0.721C11.984,12.736,14.346,10.551,16.996,8.732z M9.349,16.031
		c0.635,0.265,1.268,0.538,1.907,0.784c-1.493,2.759-2.654,5.783-3.419,8.997c-1.12-0.143-2.234-0.296-3.348-0.456
		C5.578,21.973,7.237,18.833,9.349,16.031z M4.204,26.327c1.134,0.163,2.271,0.321,3.412,0.467c-0.512,2.434-0.797,4.969-0.83,7.575
		H3.013C3.058,31.588,3.469,28.894,4.204,26.327z"/>
	<path fill="#FFFFFF" d="M10.004,47.642L9.5,48.232c0.353,0.299,0.71,0.586,1.068,0.871C10.37,48.622,10.182,48.135,10.004,47.642z"
		/>
	<path fill="#FFFFFF" d="M43.066,3.587c0.104,0.022,0.207,0.047,0.31,0.069c0.307,0.155,0.61,0.32,0.911,0.494
		c-0.12,0.079-0.239,0.167-0.36,0.242c-0.273-0.26-0.552-0.506-0.833-0.741c0.282,0.653,0.478,1.34,0.586,2.038
		c0.044-0.025,0.088-0.044,0.132-0.07c1.535,1.586,2.932,3.622,4.142,6.025c-0.922,0.404-1.851,0.754-2.784,1.063
		c-0.459-1.542-0.972-2.944-1.522-4.223c-0.1,0.554-0.256,1.096-0.469,1.612c0.348,0.919,0.682,1.889,0.99,2.929
		c-1.046,0.308-2.097,0.572-3.155,0.76c-0.039-0.276-0.081-0.539-0.12-0.81c-0.282,0.188-0.588,0.348-0.912,0.486
		c0.022,0.154,0.046,0.296,0.068,0.453c-0.265,0.038-0.531,0.06-0.797,0.09c0,0.007,0,0.014,0,0.021h5.102
		c0.032-0.009,0.064-0.016,0.096-0.025c0.002,0.008,0.004,0.017,0.007,0.025h1.083c-0.03-0.111-0.058-0.227-0.088-0.336
		c0.987-0.326,1.969-0.704,2.944-1.133c0.223,0.477,0.438,0.967,0.646,1.47h1.031c-0.259-0.638-0.526-1.264-0.809-1.865
		c0.771-0.365,1.54-0.761,2.303-1.19c0.416,0.581,0.812,1.19,1.197,1.814c0.331-0.106,0.672-0.174,1.025-0.201
		c-0.438-0.728-0.89-1.438-1.369-2.109c0.548-0.328,1.094-0.672,1.637-1.033c2.038,1.973,3.834,4.273,5.333,6.831
		c-0.247,0.09-0.497,0.166-0.745,0.253c0.044,0.282,0.068,0.567,0.068,0.852c0,0.061-0.005,0.122-0.007,0.183
		c0.393-0.137,0.788-0.258,1.179-0.402c1.469,2.688,2.613,5.637,3.37,8.775c-1.467,0.18-2.938,0.344-4.414,0.494
		c-0.346-1.953-0.82-3.83-1.391-5.631c-0.241,0.266-0.515,0.502-0.824,0.703c0.492,1.615,0.909,3.29,1.219,5.029
		c-1.504,0.146-3.011,0.279-4.522,0.395c-0.22-1.746-0.515-3.435-0.869-5.064c-0.428-0.175-0.826-0.413-1.189-0.71
		c0.438,1.872,0.812,3.811,1.067,5.85c-1.542,0.111-3.088,0.203-4.636,0.282c-0.179-2.32-0.439-4.542-0.771-6.645l-7.107,0.006
		l0,0.68c0.334-0.019,0.669-0.033,1.004-0.057c0.147,1.949,0.267,4.033,0.349,6.256c-0.45,0.01-0.9,0.01-1.35,0.018l0,1.01
		c0.461-0.008,0.922-0.008,1.383-0.018c0.058,1.856,0.092,3.802,0.096,5.837h-1.476l0,1h1.476c-0.004,2.039-0.038,3.989-0.097,5.848
		c-0.458-0.01-0.917-0.01-1.376-0.018l0,0.999c0.448,0.008,0.896,0.007,1.343,0.018c-0.082,2.223-0.201,4.306-0.349,6.255
		c-0.33-0.023-0.661-0.037-0.992-0.056l0,1.001c0.304,0.018,0.608,0.03,0.912,0.051c-0.159,1.922-0.347,3.706-0.558,5.339
		c-0.117-0.017-0.235-0.023-0.352-0.039l0,1.028c0.072,0.01,0.144,0.014,0.216,0.024c-0.069,0.496-0.142,0.965-0.215,1.432v0.112
		c0.324-0.008,0.651-0.029,0.977-0.048c0.069-0.449,0.139-0.899,0.203-1.366c1.058,0.188,2.108,0.452,3.155,0.76
		c-0.025,0.084-0.053,0.161-0.078,0.245c0.825-0.136,1.651-0.309,2.477-0.509c-0.372-0.138-0.743-0.276-1.117-0.399
		c0.502-1.822,0.94-3.797,1.304-5.903c1.32,0.213,2.634,0.475,3.942,0.766c-0.487,1.718-1.049,3.341-1.679,4.853
		c0.397-0.126,0.794-0.254,1.189-0.395c0.531-1.339,1.017-2.747,1.441-4.23c1.208,0.288,2.409,0.608,3.605,0.963
		c-0.197,0.469-0.408,0.923-0.621,1.376c0.477-0.239,0.95-0.488,1.418-0.747c0.05-0.118,0.106-0.229,0.156-0.348
		c0.095,0.029,0.188,0.066,0.282,0.096c0.383-0.217,0.763-0.439,1.14-0.67c-0.351-0.116-0.698-0.248-1.05-0.358
		c0.983-2.533,1.752-5.263,2.262-8.141c1.476,0.15,2.947,0.315,4.414,0.494c-0.096,0.398-0.216,0.784-0.324,1.175
		c0.405-0.137,0.794-0.299,1.169-0.487c0.048-0.19,0.108-0.375,0.154-0.567c0.228,0.029,0.453,0.062,0.68,0.093
		c0.41-0.258,0.807-0.539,1.188-0.848c-0.549-0.075-1.096-0.155-1.647-0.225c0.512-2.435,0.797-4.97,0.83-7.576h3.773
		c-0.03,1.888-0.243,3.731-0.597,5.526c0.552-0.611,1.097-1.248,1.647-1.896c0.321-0.378,0.643-0.756,0.966-1.13l0.94-1.084
		c0.036-0.635,0.056-1.273,0.056-1.916c0-18.12-14.243-33.068-32.424-34.839C41.282,0.804,42.406,2.097,43.066,3.587z M52.451,28
		c0.222,2.059,0.345,4.189,0.361,6.369h-4.829c-0.01-2.083-0.082-4.114-0.212-6.081C49.333,28.207,50.894,28.113,52.451,28z
		 M47.983,35.369h4.829c-0.017,2.182-0.139,4.314-0.362,6.375c-1.557-0.112-3.118-0.205-4.68-0.286
		C47.901,39.489,47.973,37.455,47.983,35.369z M46.983,34.369h-4.681c-0.005-1.954-0.041-3.918-0.106-5.865
		c1.524-0.041,3.046-0.098,4.566-0.169C46.898,30.294,46.972,32.313,46.983,34.369z M45.893,20.724
		c0.34,2.095,0.604,4.309,0.791,6.604c-1.507,0.07-3.015,0.126-4.525,0.166c-0.084-2.145-0.205-4.261-0.362-6.305
		C43.166,21.074,44.532,20.922,45.893,20.724z M44.451,55.736c-1.095-0.321-2.196-0.584-3.304-0.779
		c0.22-1.714,0.409-3.529,0.567-5.413c1.341,0.113,2.678,0.262,4.009,0.456C45.364,52.04,44.938,53.964,44.451,55.736z
		 M45.893,49.013c-1.36-0.198-2.727-0.35-4.097-0.465c0.157-2.044,0.278-4.16,0.362-6.305c1.51,0.041,3.018,0.096,4.525,0.167
		C46.497,44.705,46.232,46.918,45.893,49.013z M42.195,41.244c0.066-1.95,0.102-3.918,0.107-5.875h4.681
		c-0.011,2.059-0.085,4.081-0.222,6.044C45.241,41.341,43.719,41.285,42.195,41.244z M50.96,49.944
		c-1.342-0.3-2.688-0.569-4.042-0.788c0.336-2.12,0.599-4.361,0.779-6.701c1.548,0.08,3.094,0.171,4.636,0.283
		C52.018,45.267,51.553,47.68,50.96,49.944z M55.627,51.168c-1.233-0.367-2.472-0.699-3.717-0.996c0.612-2.315,1.09-4.78,1.414-7.36
		c1.511,0.116,3.019,0.249,4.522,0.395C57.344,46.026,56.59,48.695,55.627,51.168z M58.006,42.219
		c-1.517-0.147-3.038-0.282-4.562-0.399c0.228-2.087,0.351-4.245,0.368-6.452h4.756C58.543,37.72,58.351,40.011,58.006,42.219z
		 M53.812,34.369c-0.017-2.205-0.14-4.36-0.367-6.445c1.524-0.118,3.045-0.253,4.562-0.401c0.344,2.208,0.537,4.497,0.561,6.847
		H53.812z M63.481,42.824c-1.489-0.183-2.983-0.35-4.481-0.503c0.348-2.243,0.543-4.567,0.567-6.952h4.738
		C64.272,37.935,63.991,40.43,63.481,42.824z M59.567,34.369c-0.024-2.383-0.219-4.707-0.566-6.949
		c1.498-0.153,2.992-0.321,4.481-0.505c0.509,2.393,0.791,4.888,0.824,7.454H59.567z M69.079,34.369h-3.773
		c-0.033-2.605-0.317-5.141-0.83-7.575c1.141-0.146,2.278-0.303,3.412-0.466C68.623,28.895,69.034,31.588,69.079,34.369z
		 M67.603,25.357c-1.113,0.16-2.229,0.313-3.348,0.456c-0.765-3.215-1.925-6.238-3.418-8.998c0.639-0.246,1.272-0.519,1.907-0.784
		C64.854,18.833,66.514,21.974,67.603,25.357z M55.097,8.733c2.65,1.818,5.011,4.003,7.006,6.48
		c-0.584,0.241-1.166,0.496-1.753,0.72c-1.528-2.64-3.368-5.015-5.455-7.061C54.962,8.826,55.03,8.781,55.097,8.733z M54.183,8.125
		c-0.015,0.01-0.03,0.021-0.046,0.032c-0.07-0.064-0.139-0.128-0.209-0.191C54.012,8.02,54.098,8.071,54.183,8.125z M48.42,5.19
		c1.736,0.991,3.369,2.188,4.884,3.556c-0.493,0.323-0.991,0.606-1.487,0.901c-1.525-1.995-3.233-3.698-5.08-5.065
		C47.305,4.771,47.866,4.973,48.42,5.19z M45.224,4.728c2.104,1.382,4.039,3.22,5.744,5.434c-0.711,0.397-1.428,0.756-2.146,1.095
		c-1.221-2.419-2.626-4.496-4.173-6.141C44.84,4.992,45.032,4.86,45.224,4.728z"/>
</g>
<path fill="#FFFFFF" d="M71.851,38.524c-2.789,3.215-5.365,6.786-9.648,7.71c0.597,0.7,1.194,1.402,1.791,2.104
	c-6.746,6.008-15.889,10.034-24.833,10.034c-0.108,0-0.215-0.001-0.324-0.002l-0.018-38.727l12.374-0.011
	c0.662,0.953,1.73,1.573,2.938,1.573c4.779,0,4.779-7.657,0-7.657c-1.168,0-2.205,0.579-2.87,1.478H38.255
	c-0.003-0.854-0.008-1.498,0.025-2.127c6.414-0.83,6.216-12.57-2.105-12.635c-0.02,0-0.039,0-0.059,0
	c-7.483-0.001-9.321,11.049-2.309,12.652l-0.001,2.077H21.619c-0.666-0.883-1.693-1.445-2.847-1.445c-4.779,0-4.779,7.657,0,7.657
	c1.206,0,2.272-0.618,2.935-1.569l11.568,0.007c-0.031,12.908-0.061,25.817-0.091,38.727c-0.121,0.001-0.242,0.002-0.362,0.002
	c-8.929,0-17.434-3.593-24.729-10.034c0.599-0.702,1.199-1.404,1.798-2.104c-4.19-0.904-6.904-4.553-9.649-7.71
	c-0.173,6.121,0.737,12.198,2.681,17.97c0.895-1.168,1.789-2.334,2.682-3.498c6.695,8.003,15.376,16.01,26.702,16.74l3.814,5.232
	c1.206-1.667,2.409-3.258,3.614-4.926c11.185-0.722,20.354-9.217,26.754-17.047c0.894,1.164,1.787,2.33,2.682,3.498
	C71.111,50.728,72.024,44.64,71.851,38.524z M54.121,15.288c1.084,0,1.963,0.935,1.963,2.089s-0.879,2.089-1.963,2.089
	c-1.084,0-1.964-0.935-1.964-2.089S53.037,15.288,54.121,15.288z M18.788,19.466c-1.084,0-1.964-0.935-1.964-2.089
	s0.879-2.089,1.964-2.089c1.084,0,1.963,0.935,1.963,2.089S19.872,19.466,18.788,19.466z M36.034,10.149
	c-1.739,0-3.221-1.636-3.221-3.468c0-1.833,1.517-3.318,3.256-3.318c1.742,0,3.293,1.373,3.293,3.205
	C39.362,8.402,37.773,10.149,36.034,10.149z"/>
</svg>
