<?xml version="1.0" encoding="utf-8"?>
<!-- Generator: Adobe Illustrator 16.0.0, SVG Export Plug-In . SVG Version: 6.00 Build 0)  -->
<!DOCTYPE svg PUBLIC "-//W3C//DTD SVG 1.1//EN" "http://www.w3.org/Graphics/SVG/1.1/DTD/svg11.dtd">
<svg version="1.1" id="Layer_1" xmlns="http://www.w3.org/2000/svg" xmlns:xlink="http://www.w3.org/1999/xlink" x="0px" y="0px"
	 width="500px" height="148px" viewBox="0 0 500 148" style="enable-background:new 0 0 500 148;" xml:space="preserve">
<path style="fill:#FFE131;" d="M50.054,110.781c1.675,3.586,3.586,7.125,5.68,10.52l0.028,0.032h35.75l0.035-0.032
	c2.095-3.395,4.013-6.934,5.689-10.52l0.029-0.404H50.008L50.054,110.781 M105.064,63.322l-0.025-0.19L83.72,96.893h-3.263V53.152
	c7.009-0.582,14.886-2.105,21.683-4.525l0.063-0.023l-0.022-0.063c-0.455-1.311-1.461-3.699-2.037-5.124l-0.017-0.043H80.498
	c2.859-2.146,4.562-5.535,4.562-9.083c0-6.267-5.098-11.365-11.364-11.365c-0.012,0-0.108,0-0.119,0
	c-6.266,0-11.365,5.098-11.365,11.365c0,3.548,1.703,6.937,4.562,9.083H47.147l-0.017,0.043c-0.575,1.425-1.498,3.813-1.952,5.124
	l-0.022,0.063l0.063,0.023c6.796,2.42,14.588,3.943,21.596,4.525v43.741h-3.262l-21.32-33.761l-0.025,0.19
	c-1.582,11.711-0.548,23.601,3.075,35.339c0.618,2.006,1.395,4.037,2.168,6.037l0.029,0.043H99.8l0.018-0.043
	c0.772-2,1.553-4.031,2.172-6.037C105.612,86.923,106.646,75.033,105.064,63.322z M73.693,39.11h-0.06
	c-1.285-0.008-2.489-0.516-3.391-1.432c-0.918-0.904-1.424-2.107-1.424-3.387c0-1.926,1.152-3.649,2.935-4.392
	c0.552-0.241,1.142-0.372,1.754-0.392v0.002l0.196-0.006c2.629,0.021,4.768,2.176,4.768,4.803
	C78.471,36.94,76.328,39.094,73.693,39.11z"/>
<path style="fill:#FFFFFF;" d="M73.476,28.508c-0.739,0.023-1.452,0.183-2.108,0.468c-2.157,0.898-3.55,2.984-3.55,5.314
	c0,1.55,0.612,3.007,1.711,4.09c1.09,1.106,2.545,1.72,4.104,1.731H73.7c3.182-0.02,5.771-2.623,5.771-5.804
	c0-3.175-2.584-5.778-5.788-5.804L73.476,28.508 M77.471,34.307c0,2.084-1.697,3.791-3.784,3.804H73.64
	c-1.018-0.007-1.971-0.41-2.697-1.145c-0.725-0.715-1.125-1.665-1.125-2.676c0-1.519,0.911-2.882,2.333-3.474
	c0.437-0.19,0.903-0.293,1.384-0.308l0.16-0.005C75.777,30.52,77.471,32.226,77.471,34.307z M73.663,0.675
	C33.045,0.675,0,33.719,0,74.336C0,114.954,33.045,148,73.663,148c40.618,0,73.664-33.046,73.664-73.664
	C147.327,33.719,114.281,0.675,73.663,0.675z M112.931,15.085c-3.102,3.065-6.244,5.76-9.424,8.064
	c-3.949-4.074-8.389-8.104-13.316-12.086c1.93-1.149,3.89-2.541,5.869-4.206C102.079,8.86,107.744,11.636,112.931,15.085z
	 M84.028,13.992c1.235-0.442,2.486-0.966,3.754-1.6c5.052,4.034,9.586,8.113,13.606,12.232c-2.295,1.532-4.608,2.855-6.937,3.992
	C91.564,23.812,88.104,18.927,84.028,13.992z M98.685,42.374H88.618c-0.539-2.663-1.135-5.352-1.843-8.083
	c2.248-0.632,4.482-1.435,6.701-2.408C95.479,35.357,97.196,38.856,98.685,42.374z M92.159,29.667
	c-2.003,0.864-4.017,1.592-6.043,2.163c-1.521-5.493-3.399-11.099-5.697-16.776c0.327-0.075,0.656-0.16,0.985-0.247
	C85.519,19.708,89.106,24.663,92.159,29.667z M86.023,42.374h-2.996c0.939-1.086,1.679-2.327,2.195-3.655
	C85.506,39.943,85.773,41.161,86.023,42.374z M81.195,24.483c-1.767-1.355-3.901-2.254-6.234-2.493v-6.217
	c0.951-0.036,1.918-0.116,2.903-0.251C79.093,18.529,80.197,21.517,81.195,24.483z M84.061,34.29c0,3.231-1.557,6.327-4.163,8.284
	l-2.397,1.8h22.006c0.208,0.526,0.561,1.403,0.879,2.21c0.166,0.45,0.334,0.905,0.485,1.339l0.022,0.063l-0.009,0.003
	c0.001,0.005,0.003,0.01,0.005,0.015c-6.432,2.206-13.908,3.602-20.515,4.151l-0.917,0.076v45.662h4.814l20.604-31.844
	c0.125,1.228,0.213,2.457,0.279,3.688c0.011,0.212,0.024,0.425,0.034,0.638c0.049,1.076,0.072,2.154,0.078,3.232
	c0.002,0.464-0.006,0.927-0.012,1.391c-0.01,0.764-0.03,1.527-0.062,2.29c-0.021,0.494-0.042,0.989-0.071,1.481
	c-0.049,0.804-0.116,1.607-0.188,2.411c-0.038,0.423-0.067,0.847-0.112,1.269c-0.121,1.135-0.269,2.27-0.439,3.404
	c-0.081,0.544-0.18,1.087-0.273,1.629c-0.11,0.648-0.224,1.298-0.35,1.946c-0.122,0.626-0.253,1.252-0.39,1.878
	c-0.117,0.536-0.244,1.073-0.372,1.609c-0.167,0.698-0.332,1.396-0.518,2.092c-0.067,0.251-0.144,0.502-0.213,0.753
	c-0.229,0.83-0.461,1.66-0.717,2.488c-0.564,1.824-1.262,3.669-1.965,5.492H47.686c-0.703-1.823-1.399-3.668-1.962-5.492
	c-0.213-0.69-0.403-1.381-0.598-2.072c-0.115-0.411-0.24-0.821-0.349-1.234c-0.167-0.627-0.315-1.256-0.466-1.884
	c-0.149-0.616-0.295-1.235-0.429-1.854c-0.123-0.563-0.24-1.126-0.351-1.689c-0.144-0.738-0.275-1.479-0.399-2.22
	c-0.077-0.461-0.162-0.922-0.232-1.383c-0.176-1.173-0.33-2.346-0.454-3.521c-0.034-0.322-0.054-0.647-0.085-0.971
	c-0.086-0.911-0.159-1.822-0.214-2.732c-0.025-0.428-0.043-0.855-0.061-1.282c-0.036-0.85-0.06-1.698-0.068-2.546
	c-0.005-0.392-0.012-0.783-0.01-1.175c0.01-2.551,0.134-5.098,0.392-7.637l20.601,31.844h4.814V52.231l-0.917-0.076
	c-6.601-0.548-14.027-1.942-20.504-4.164c0.302-0.838,0.979-2.71,1.338-3.617h22.039l-2.397-1.8
	c-2.606-1.957-4.162-5.053-4.162-8.284c0-5.715,4.649-10.364,10.347-10.364h0.137C79.411,23.926,84.061,28.575,84.061,34.29z
	 M91.806,73.064c-0.022-3.535-0.161-7.205-0.444-10.993c4.162-0.326,8.437-0.783,12.808-1.39c0.091,0.523,0.164,1.048,0.242,1.572
	l-6.827,10.811H91.806z M95.976,75.612l-4.399,6.965c0.118-2.255,0.203-4.566,0.226-6.965H95.976z M91.151,59.521
	c-0.2-2.208-0.466-4.463-0.772-6.742c3.784-0.724,7.578-1.688,11.129-2.889c0.88,2.751,1.616,5.513,2.187,8.287
	C99.434,58.763,95.248,59.206,91.151,59.521z M81.457,86.447V75.612h7.749c-0.045,3.873-0.226,7.613-0.516,11.197
	C86.366,86.651,83.939,86.534,81.457,86.447z M87.301,89.349l-4.133,6.544h-1.711v-6.84C83.44,89.128,85.391,89.226,87.301,89.349z
	 M81.457,73.064V62.612c2.406-0.079,4.846-0.187,7.345-0.353c0.269,3.695,0.399,7.301,0.414,10.805H81.457z M81.457,60.033v-5.966
	c2.071-0.197,4.226-0.483,6.404-0.841c0.289,2.182,0.543,4.347,0.733,6.475C86.178,59.858,83.805,59.96,81.457,60.033z
	 M98.769,105.741c-0.507,1.246-1.028,2.459-1.566,3.636h-9.26c0.262-1.177,0.516-2.391,0.763-3.636H98.769z M86.034,105.741
	c-0.248,1.247-0.504,2.461-0.765,3.636H74.914v-3.636H86.034z M72.366,105.741v3.636H62.003c-0.262-1.175-0.517-2.389-0.766-3.636
	H72.366z M59.335,109.377h-9.266c-0.536-1.176-1.056-2.39-1.563-3.636h10.066C58.819,106.986,59.074,108.2,59.335,109.377z
	 M46.259,61.013c3.014,0.38,6.244,0.722,9.662,1c-0.285,3.81-0.425,7.498-0.448,11.051h-5.786l-6.82-10.801
	c0.081-0.557,0.161-1.114,0.257-1.67C44.155,60.738,45.196,60.88,46.259,61.013z M43.617,58.009c0.568-2.726,1.295-5.439,2.16-8.142
	c3.544,1.207,7.333,2.178,11.123,2.908c-0.299,2.237-0.562,4.452-0.76,6.622C51.737,59.032,47.554,58.557,43.617,58.009z
	 M55.703,82.589l-4.407-6.977h4.181C55.499,78.015,55.585,80.329,55.703,82.589z M65.815,62.578v10.486h-7.76
	c0.015-3.521,0.148-7.146,0.421-10.861C60.832,62.367,63.295,62.488,65.815,62.578z M58.689,59.593
	c0.189-2.095,0.44-4.224,0.725-6.369c2.172,0.358,4.324,0.646,6.401,0.843v5.906C63.391,59.879,61.004,59.757,58.689,59.593z
	 M58.577,86.778c-0.288-3.575-0.469-7.306-0.513-11.166h7.751v10.814C63.444,86.505,61.04,86.613,58.577,86.778z M65.815,89.008
	v6.885h-1.711l-4.177-6.614C61.914,89.159,63.875,89.072,65.815,89.008z M48.595,42.374c1.525-3.6,3.29-7.18,5.353-10.733
	c2.084,0.916,4.291,1.74,6.616,2.421c-0.733,2.808-1.349,5.574-1.903,8.312H48.595z M61.254,42.374
	c0.25-1.21,0.516-2.426,0.801-3.647c0.515,1.325,1.253,2.563,2.191,3.647H61.254z M72.414,21.985
	c-2.369,0.222-4.538,1.121-6.33,2.493c1.004-2.984,2.116-5.99,3.354-9.014c0.967,0.143,1.958,0.246,2.976,0.295V21.985z
	 M61.235,31.573c-2.077-0.62-4.064-1.358-5.949-2.18c3.03-4.934,6.582-9.82,10.645-14.653c0.316,0.083,0.635,0.164,0.959,0.24
	C64.614,20.594,62.75,26.138,61.235,31.573z M52.999,28.331c-2.509-1.229-4.812-2.578-6.878-3.942
	c3.976-4.052,8.447-8.065,13.421-12.034c1.163,0.564,2.421,1.1,3.761,1.574C59.285,18.789,55.863,23.598,52.999,28.331z
	 M51.683,30.589c-2.737,4.782-4.93,9.481-6.656,14.07c-4.177-1.59-7.961-3.385-11.278-5.183c2.934-4.431,6.449-8.823,10.534-13.173
	C46.487,27.783,48.963,29.253,51.683,30.589z M44.157,47.061c-1.241,3.611-2.197,7.151-2.907,10.605
	c-5.689-0.853-10.819-1.846-15.294-2.849c1.577-4.421,3.713-8.81,6.402-13.163C35.807,43.526,39.763,45.398,44.157,47.061z
	 M40.764,60.248c-0.766,4.432-1.133,8.711-1.187,12.816H22.618c0.062-5.293,0.897-10.553,2.509-15.771
	C29.701,58.335,34.949,59.366,40.764,60.248z M39.583,75.612c0.084,4.62,0.547,9.003,1.279,13.093
	c-4.989,0.752-10.091,1.698-15.286,2.882c-1.661-5.025-2.733-10.369-2.932-15.975H39.583z M41.351,91.204
	c0.582,2.773,1.274,5.407,2.04,7.875c0.329,1.064,0.677,2.103,1.035,3.129c-3.699,1.408-7.472,3.133-11.302,5.215
	c-2.576-4.122-4.895-8.611-6.696-13.414C31.481,92.865,36.464,91.936,41.351,91.204z M45.261,104.509
	c1.891,5.009,4.065,9.515,6.258,13.445c-2.367,1.201-4.714,2.598-7.042,4.188c-3.339-3.607-6.82-7.845-9.999-12.622
	C38.046,107.57,41.642,105.906,45.261,104.509z M52.793,120.177c4.038,6.839,7.949,11.681,10.036,14.074
	c-1.094,0.408-2.202,0.889-3.321,1.448c-1.378-0.995-6.893-5.115-13.257-11.685C48.415,122.557,50.598,121.282,52.793,120.177z
	 M57.16,122.333h5.617c1.673,5.331,3.175,9.054,3.904,10.752c-0.397,0.093-0.797,0.195-1.199,0.307
	C64.095,131.849,60.827,128.007,57.16,122.333z M65.477,122.333h6.889v9.988c-1.019,0.038-2.059,0.127-3.118,0.278
	C68.72,131.402,67.217,127.82,65.477,122.333z M55.892,120.333c-0.128-0.215-0.255-0.429-0.384-0.642
	c-0.126-0.209-0.251-0.412-0.378-0.624c0.002-0.001,0.003-0.001,0.004-0.001c-0.439-0.74-0.867-1.483-1.287-2.233
	c-0.001,0.001-0.003,0.001-0.003,0.002c-0.091-0.162-0.182-0.33-0.272-0.494c-0.315-0.569-0.625-1.141-0.929-1.717
	c-0.207-0.39-0.414-0.785-0.619-1.186c-0.178-0.349-0.356-0.696-0.53-1.045c-0.166-0.334-0.329-0.678-0.493-1.017h45.286
	c-1.475,3.049-3.117,6.056-4.897,8.956H55.892z M74.914,122.333h6.883c-1.766,5.576-3.288,9.185-3.79,10.322
	c-1.004-0.154-2.034-0.265-3.093-0.318V122.333z M84.502,122.333h5.611c-3.717,5.75-7.026,9.625-8.378,11.127
	c-0.383-0.107-0.773-0.208-1.168-0.303C81.283,131.496,82.804,127.745,84.502,122.333z M94.572,120.029
	c2.42,1.17,4.654,2.453,6.669,3.757c-6.529,6.779-12.209,11.005-13.52,11.95c-1.038-0.503-2.149-0.985-3.328-1.419
	C86.478,131.931,90.465,127.013,94.572,120.029z M95.868,117.763c2.131-3.841,4.241-8.223,6.086-13.08
	c3.975,1.506,7.592,3.196,10.796,4.902c-3.084,4.624-6.449,8.743-9.691,12.272C100.901,120.437,98.497,119.036,95.868,117.763z
	 M102.827,102.282c0.367-1.048,0.725-2.113,1.062-3.203c0.755-2.435,1.437-5.029,2.015-7.759c5.522,0.819,10.531,1.772,14.925,2.741
	c-1.798,4.779-4.11,9.248-6.677,13.354C110.813,105.633,107.021,103.863,102.827,102.282z M106.411,88.74
	c0.735-4.101,1.201-8.495,1.285-13.128h16.939c-0.199,5.606-1.273,10.953-2.936,15.979C117.2,90.583,112.069,89.589,106.411,88.74z
	 M107.702,73.064c-0.053-4.073-0.414-8.319-1.168-12.714c5.1-0.767,10.326-1.756,15.642-2.975
	c1.596,5.191,2.424,10.423,2.485,15.689H107.702z M106.067,57.841c-0.715-3.518-1.687-7.125-2.954-10.806
	c3.837-1.483,7.752-3.305,11.727-5.515c2.756,4.442,4.937,8.923,6.535,13.435C116.189,56.139,111.078,57.093,106.067,57.841z
	 M102.277,44.728c-1.7-4.533-3.853-9.172-6.537-13.893c2.499-1.232,4.979-2.675,7.436-4.34c3.986,4.263,7.427,8.567,10.308,12.909
	C109.776,41.478,106.04,43.252,102.277,44.728z M73.663,3.223c6.754,0,13.283,0.967,19.478,2.734
	c-18.135,14.204-33.813,4.29-39.088,0.037C60.287,4.203,66.861,3.223,73.663,3.223z M51.189,6.883
	c1.052,0.916,3.09,2.55,5.907,4.174c-4.84,3.911-9.21,7.869-13.106,11.869c-4.958-3.554-8.22-6.9-9.279-8.043
	C39.79,11.544,45.32,8.843,51.189,6.883z M32.587,16.339c0.832,0.936,4.209,4.578,9.587,8.49
	c-4.125,4.418-7.682,8.886-10.657,13.398c-6.938-4.001-11.469-7.756-12.834-8.942C22.715,24.374,27.398,20.025,32.587,16.339z
	 M17.104,31.294c1.562,1.364,6.101,5.114,13.027,9.111c-2.816,4.569-5.045,9.182-6.68,13.835c-8.394-1.992-14.117-3.916-16.419-4.74
	C9.495,42.914,12.909,36.793,17.104,31.294z M6.193,51.908c2.384,0.858,8.127,2.797,16.444,4.802
	c-1.653,5.403-2.507,10.857-2.567,16.354H2.58C2.711,65.685,3.969,58.579,6.193,51.908z M2.58,75.612h17.514v0.013
	c0.198,5.812,1.298,11.346,3.002,16.548c-5.522,1.331-11.14,2.933-16.822,4.832C4,90.265,2.712,83.078,2.58,75.612z M7.125,99.407
	c5.67-1.896,11.284-3.491,16.815-4.817c1.868,5.042,4.285,9.748,6.975,14.062c-4.422,2.548-8.915,5.595-13.455,9.18
	C13.154,112.282,9.649,106.085,7.125,99.407z M19.045,119.821c4.366-3.449,8.776-6.474,13.23-9.058
	c3.217,4.853,6.735,9.165,10.119,12.849c-3.357,2.473-6.67,5.347-9.934,8.632C27.476,128.688,22.961,124.515,19.045,119.821z
	 M34.597,133.719c3.144-3.135,6.329-5.889,9.551-8.24c5.599,5.828,10.598,9.827,12.904,11.57c-2.073,1.236-4.181,2.755-6.311,4.591
	C44.995,139.677,39.578,137.007,34.597,133.719z M73.663,145.452c-6.96,0-13.683-1.023-20.045-2.896
	c19.016-15.343,35.427-3.99,40.142-0.015C87.383,144.425,80.643,145.452,73.663,145.452z M96.574,141.644
	c-0.803-0.737-3.039-2.667-6.359-4.585c2.333-1.763,7.45-5.854,13.157-11.83c5.082,3.577,8.485,7.015,9.674,8.286
	C107.976,136.901,102.444,139.64,96.574,141.644z M115.155,132.039c-1.026-1.139-4.532-4.848-9.984-8.739
	c3.287-3.602,6.686-7.795,9.806-12.494c6.929,3.927,11.573,7.686,13.229,9.102C124.384,124.476,119.994,128.55,115.155,132.039z
	 M129.804,117.913c-1.797-1.547-6.464-5.325-13.43-9.277c2.68-4.299,5.088-8.985,6.951-14.007
	c8.467,1.979,14.335,3.916,16.864,4.812C137.653,106.14,134.13,112.352,129.804,117.913z M141.042,97.038
	c-2.585-0.922-8.456-2.876-16.857-4.871c1.704-5.2,2.802-10.732,3.001-16.542v-0.013h17.561
	C144.614,83.091,143.322,90.287,141.042,97.038z M144.747,73.064h-17.538c-0.06-5.467-0.906-10.892-2.541-16.266
	c5.422-1.315,10.936-2.898,16.51-4.763C143.375,58.67,144.618,65.732,144.747,73.064z M140.348,49.633
	c-5.554,1.857-11.053,3.424-16.473,4.733c-1.658-4.747-3.933-9.453-6.817-14.113c4.303-2.537,8.672-5.539,13.086-9.059
	C134.403,36.755,137.866,42.956,140.348,49.633z M115.699,38.128c-2.92-4.416-6.4-8.789-10.422-13.115
	c3.306-2.419,6.569-5.238,9.784-8.445c5.027,3.613,9.578,7.851,13.508,12.622C124.321,32.58,120.03,35.559,115.699,38.128z
	 M483.139,78.808c4.441-0.829,7.817-2.799,10.127-5.908s3.465-6.884,3.465-11.326c0-3.671-0.638-6.736-1.91-9.194
	c-1.274-2.457-2.991-4.411-5.152-5.863c-2.162-1.45-4.68-2.487-7.551-3.109c-2.873-0.622-5.907-0.933-9.105-0.933h-24.339v62.892
	h13.857V80.229h6.84l13.146,25.139h16.611L483.139,78.808z M481.229,65.483c-0.741,0.947-1.674,1.643-2.798,2.087
	c-1.126,0.444-2.385,0.711-3.775,0.8c-1.392,0.088-2.709,0.133-3.953,0.133h-8.172V54.201h9.061c1.243,0,2.517,0.089,3.819,0.267
	c1.302,0.177,2.457,0.519,3.465,1.021c1.007,0.504,1.835,1.23,2.487,2.177c0.651,0.948,0.977,2.22,0.977,3.819
	C482.339,63.203,481.969,64.536,481.229,65.483z M431.44,49.804c-3.02-2.872-6.604-5.077-10.749-6.618
	c-4.146-1.539-8.676-2.31-13.591-2.31c-4.916,0-9.446,0.771-13.591,2.31c-4.146,1.541-7.729,3.746-10.748,6.618
	c-3.021,2.873-5.375,6.352-7.062,10.438c-1.688,4.086-2.531,8.647-2.531,13.68c0,5.034,0.844,9.594,2.531,13.68
	c1.688,4.087,4.042,7.565,7.062,10.438c3.02,2.873,6.602,5.078,10.748,6.618c4.145,1.539,8.675,2.309,13.591,2.309
	c4.915,0,9.445-0.77,13.591-2.309c4.145-1.54,7.729-3.745,10.749-6.618c3.021-2.872,5.374-6.351,7.062-10.438
	c1.688-4.086,2.531-8.646,2.531-13.68c0-5.033-0.844-9.594-2.531-13.68C436.814,56.156,434.461,52.677,431.44,49.804z
	 M425.267,82.05c-0.919,2.458-2.236,4.59-3.954,6.396c-1.717,1.806-3.773,3.212-6.173,4.219c-2.398,1.008-5.077,1.51-8.039,1.51
	s-5.641-0.502-8.038-1.51c-2.399-1.007-4.459-2.413-6.175-4.219c-1.718-1.807-3.035-3.938-3.953-6.396
	c-0.918-2.457-1.377-5.167-1.377-8.128c0-2.901,0.459-5.597,1.377-8.084c0.918-2.487,2.235-4.633,3.953-6.44
	c1.716-1.806,3.775-3.212,6.175-4.22c2.397-1.006,5.076-1.51,8.038-1.51s5.641,0.504,8.039,1.51c2.399,1.008,4.456,2.414,6.173,4.22
	c1.718,1.807,3.035,3.953,3.954,6.44c0.918,2.487,1.377,5.183,1.377,8.084C426.644,76.883,426.185,79.593,425.267,82.05z
	 M176.457,105.367h13.857V42.475h-13.857V105.367z M200.684,105.367h13.857V80.85h26.205V68.059h-26.205V55.267h28.337V42.475
	h-42.194V105.367z M351.672,65.927h-26.916V42.475h-13.857v62.892h13.857V78.186h26.916v27.182h13.857V42.475h-13.857V65.927z
	 M288.157,92.399c-2.191,1.184-4.708,1.775-7.551,1.775c-2.487,0-4.812-0.502-6.973-1.51c-2.162-1.007-4.042-2.413-5.641-4.219
	c-1.6-1.807-2.858-3.938-3.775-6.396c-0.919-2.457-1.377-5.167-1.377-8.128c0-2.901,0.458-5.597,1.377-8.084
	c0.917-2.487,2.19-4.633,3.819-6.44c1.628-1.806,3.554-3.212,5.775-4.22c2.22-1.006,4.632-1.51,7.238-1.51
	c2.605,0,4.899,0.445,6.885,1.332c1.983,0.889,3.656,2.163,5.019,3.821l10.66-8.706c-1.363-1.717-2.902-3.167-4.619-4.353
	c-1.719-1.184-3.509-2.132-5.374-2.842c-1.866-0.711-3.762-1.229-5.686-1.555c-1.925-0.325-3.775-0.489-5.552-0.489
	c-4.916,0-9.446,0.771-13.591,2.31c-4.146,1.541-7.73,3.746-10.749,6.618c-3.021,2.873-5.374,6.352-7.062,10.438
	c-1.688,4.086-2.531,8.647-2.531,13.68c0,5.034,0.844,9.594,2.531,13.68c1.688,4.087,4.042,7.565,7.062,10.438
	c3.019,2.873,6.603,5.078,10.749,6.618c4.145,1.539,8.675,2.309,13.591,2.309c4.322,0,8.527-0.888,12.613-2.664
	c4.087-1.775,7.462-4.529,10.127-8.262l-11.548-8.616C292.155,89.556,290.348,91.214,288.157,92.399z"/>
</svg>
