<svg version="1.1" id="Layer_1" xmlns="http://www.w3.org/2000/svg" xmlns:xlink="http://www.w3.org/1999/xlink" x="0px" y="0px"
	 width="71.65px" height="74.703px" viewBox="0 0 71.65 74.703" enable-background="new 0 0 71.65 74.703" xml:space="preserve">
<g>

		<rect x="16.645" y="49.925" transform="matrix(0.7068 0.7074 -0.7074 0.7068 41.9554 2.1343)" fill="#ffffff" width="3.515" height="3.518"/>
	<rect x="58.653" y="32.524" fill="#ffffff" width="3.516" height="3.517"/>
	<rect x="9.458" y="32.524" fill="#ffffff" width="3.518" height="3.517"/>

		<rect x="51.44" y="49.929" transform="matrix(-0.7072 -0.707 0.707 -0.7072 54.2819 125.8531)" fill="#ffffff" width="3.518" height="3.517"/>
	<g>
		<path fill="#ffffff" d="M28.38,20.377l-5.929-0.004c-3.662,3.516-5.959,8.441-5.959,13.91c0,9.34,6.665,17.113,15.481,18.901
			l0.009-3.565C25.11,47.9,20.008,41.691,20.008,34.305C20.008,28.284,23.408,23.043,28.38,20.377z"/>
		<path fill="#ffffff" d="M0.021,38.259c-0.173,6.121,0.737,12.198,2.681,17.97c0.895-1.168,1.789-2.334,2.682-3.498
			c6.695,8.003,15.375,16.01,26.701,16.74l3.814,5.232c1.207-1.667,2.41-3.258,3.615-4.926c11.184-0.722,20.354-9.217,26.754-17.047
			c0.893,1.164,1.787,2.33,2.682,3.498c1.939-5.766,2.854-11.854,2.68-17.97c-2.789,3.215-5.365,6.786-9.648,7.71
			c0.596,0.7,1.193,1.402,1.791,2.104c-6.746,6.008-15.889,10.034-24.834,10.034c-0.107,0-0.215-0.001-0.324-0.002l-0.018-38.727
			l12.375-0.011c0.662,0.953,1.73,1.573,2.938,1.573c4.779,0,4.779-7.657,0-7.657c-1.168,0-2.205,0.579-2.871,1.478H38.034
			c-0.004-0.854-0.008-1.498,0.025-2.127c6.414-0.83,6.215-12.57-2.105-12.635c-0.02,0-0.039,0-0.059,0
			c-7.482-0.001-9.32,11.049-2.309,12.652l-0.002,2.077H21.397c-0.666-0.883-1.693-1.445-2.846-1.445c-4.779,0-4.779,7.657,0,7.657
			c1.205,0,2.271-0.618,2.934-1.569l11.568,0.007c-0.031,12.908-0.061,25.817-0.09,38.727c-0.121,0.001-0.242,0.002-0.363,0.002
			c-8.928,0-17.434-3.593-24.728-10.034c0.599-0.702,1.198-1.404,1.798-2.104C5.48,45.064,2.766,41.416,0.021,38.259z M32.592,6.416
			c0-1.833,1.516-3.318,3.256-3.318c1.742,0,3.293,1.373,3.293,3.205c0,1.834-1.59,3.581-3.328,3.581
			C34.073,9.884,32.592,8.248,32.592,6.416z"/>
		<path fill="#ffffff" d="M2.424,26.991v12.529c0.93,1.074,1.886,2.124,2.921,3.023l3.148,1.046
			c0.131,0.371,0.279,0.741,0.423,1.111c0.315,0.11,0.632,0.218,0.965,0.29l1.639,0.354l-1.09,1.273l-0.221,0.258L9.66,47.52
			l-0.269,0.539c0.927,0.779,1.871,1.507,2.829,2.188l1.634-3.269l-2.553-6.155l-5.359-1.779v-9.522l5.359-1.779l2.553-6.154
			l-2.529-5.062l6.732-6.732l5.062,2.53l5.71-2.368c-0.54-1.229-0.729-2.598-0.583-3.896c0.215-1.901,1.128-3.811,2.63-5.165h-2.374
			l-2.018,6.068c-1.158,0.407-2.316,0.879-3.432,1.415l-5.725-2.852L7.014,15.84l2.852,5.727c-0.557,1.115-1.029,2.251-1.415,3.432
			L2.424,26.991z"/>
		<path fill="#ffffff" d="M43.549,6.227c0.078,1.277-0.145,2.598-0.659,3.768l5.62,2.329l5.061-2.53l6.732,6.732l-2.529,5.062
			l2.551,6.154l5.363,1.779v9.522l-5.363,1.779l-2.551,6.155l1.629,3.259c0.983-0.685,1.941-1.412,2.861-2.186l-0.246-0.495
			l-0.799-0.939l-1.084-1.273l1.635-0.353c0.335-0.072,0.65-0.178,0.965-0.284c0.146-0.378,0.296-0.753,0.422-1.139l3.242-1.076
			c0.989-0.874,1.908-1.892,2.826-2.961V26.97l-6.068-2.017c-0.43-1.136-0.902-2.294-1.438-3.387l2.852-5.727L54.256,5.525
			L48.53,8.377c-1.115-0.557-2.25-1.028-3.43-1.415l-2.018-6.068h-1.959C42.636,2.283,43.431,4.261,43.549,6.227z"/>
		<path fill="#ffffff" d="M39.611,49.626l0.001,3.565c8.839-1.772,15.523-9.555,15.523-18.908c0-5.47-2.298-10.397-5.962-13.913
			l-5.93,0.005c4.976,2.665,8.376,7.908,8.376,13.93C51.62,41.701,46.49,47.917,39.611,49.626z"/>
	</g>
</g>
</svg>
