<svg version="1.1" id="Layer_1" xmlns="http://www.w3.org/2000/svg" xmlns:xlink="http://www.w3.org/1999/xlink" x="0px" y="0px"
	 width="72.093px" height="74.962px" viewBox="0 0 72.093 74.962" enable-background="new 0 0 72.093 74.962" xml:space="preserve">
<g>
	<circle fill="#ffffff" cx="29.029" cy="28.614" r="2.493"/>
	<path fill="#ffffff" d="M22.131,53.219c-0.449-0.122-0.858-0.329-1.217-0.606c0.319,0.991,0.66,1.952,1.028,2.874
		c0.402,0.141,0.807,0.272,1.211,0.397C22.791,55.029,22.448,54.143,22.131,53.219z"/>
	<path fill="#ffffff" d="M23.043,52.355c1.375,0,2.493-1.118,2.493-2.492s-1.118-2.492-2.493-2.492c-1.374,0-2.492,1.118-2.492,2.492
		S21.669,52.355,23.043,52.355z"/>
	<circle fill="#ffffff" cx="7.655" cy="36.179" r="2.493"/>
	<path fill="#ffffff" d="M2.923,56.487c0.895-1.168,1.789-2.334,2.682-3.498c6.695,8.003,15.376,16.01,26.702,16.74l3.814,5.232
		c1.206-1.667,2.409-3.258,3.614-4.926c11.185-0.722,20.354-9.217,26.754-17.047c0.894,1.164,1.787,2.33,2.682,3.498
		c1.94-5.766,2.854-11.854,2.68-17.97c-2.789,3.215-5.365,6.786-9.648,7.71c0.597,0.7,1.194,1.402,1.791,2.104
		C57.248,54.34,48.104,58.366,39.16,58.366c-0.109,0-0.216-0.001-0.324-0.002l-0.018-38.727l12.374-0.011
		c0.662,0.953,1.73,1.573,2.938,1.573c4.779,0,4.779-7.657,0-7.657c-1.168,0-2.205,0.579-2.87,1.478H38.255
		c-0.003-0.854-0.008-1.498,0.025-2.127c6.414-0.83,6.216-12.57-2.105-12.635c-0.02,0-0.039,0-0.059,0
		c-7.483-0.001-9.321,11.049-2.309,12.652l-0.001,2.077H21.619c-0.666-0.883-1.693-1.445-2.847-1.445c-4.779,0-4.779,7.657,0,7.657
		c1.206,0,2.272-0.618,2.935-1.569l11.568,0.007c-0.031,12.908-0.061,25.817-0.091,38.727c-0.12,0.001-0.242,0.002-0.362,0.002
		c-8.929,0-17.434-3.593-24.729-10.034c0.599-0.702,1.199-1.404,1.798-2.104c-4.19-0.904-6.904-4.553-9.649-7.71
		C0.069,44.639,0.979,50.716,2.923,56.487z M32.813,6.675c0-1.833,1.517-3.318,3.256-3.318c1.742,0,3.293,1.373,3.293,3.205
		c0,1.834-1.589,3.581-3.328,3.581S32.813,8.507,32.813,6.675z"/>
	<path fill="#ffffff" d="M10.578,49.104c-0.199-0.486-0.389-0.979-0.566-1.478L9.5,48.226C9.856,48.527,10.217,48.817,10.578,49.104z"/>
	<path fill="#ffffff" d="M62.082,47.629c-0.178,0.495-0.366,0.984-0.563,1.468c0.361-0.285,0.72-0.573,1.071-0.87L62.082,47.629z"/>
	<path fill="#ffffff" d="M32.252,29.956c-0.041,0.097-0.098,0.184-0.146,0.276l0.146,0.051L32.252,29.956z"/>
	<circle fill="#ffffff" cx="46.71" cy="34.862" r="2.492"/>
	<path fill="#ffffff" d="M0.069,36.794l0.928,1.067c0.292,0.335,0.583,0.677,0.876,1.019c0.568,0.666,1.143,1.336,1.733,1.981
		c-0.08-0.4-0.158-0.803-0.222-1.209c-0.023-0.151-0.043-0.303-0.064-0.454c-0.075-0.531-0.139-1.065-0.186-1.604
		c-0.009-0.096-0.018-0.191-0.025-0.288c-0.05-0.637-0.084-1.279-0.094-1.926c-0.001-0.006-0.001-0.011-0.001-0.017h1.253
		c0.087-0.358,0.23-0.693,0.418-1H3.014c0.045-2.781,0.457-5.476,1.191-8.043c0.025,0.004,0.051,0.007,0.076,0.011
		c1.109,0.159,2.221,0.313,3.336,0.456c-0.408,1.939-0.655,3.947-0.76,6c0.257-0.061,0.521-0.101,0.797-0.101
		c0.07,0,0.137,0.017,0.207,0.021c0.107-1.984,0.352-3.925,0.75-5.799c1.479,0.183,2.961,0.35,4.449,0.502
		c0.011,0.001,0.021,0.003,0.031,0.004c-0.348,2.242-0.543,4.565-0.566,6.949h-1.901c0.188,0.307,0.331,0.642,0.417,1h1.484
		c0.016,1.606,0.116,3.184,0.282,4.729L10.566,38.1c-0.186,0.28-0.418,0.522-0.674,0.738l3.102,2.759
		c0.033,0.239,0.062,0.481,0.098,0.719c-0.005,0.001-0.01,0.001-0.016,0.002c-1.493,0.152-2.98,0.319-4.465,0.502
		c-0.222-1.045-0.393-2.111-0.525-3.192c-0.144,0.019-0.284,0.044-0.432,0.044c-0.197,0-0.387-0.026-0.574-0.058
		c0.135,1.126,0.309,2.239,0.537,3.327c-0.537,0.068-1.072,0.143-1.607,0.217c0.383,0.309,0.778,0.592,1.187,0.851
		c0.204-0.028,0.409-0.058,0.614-0.084c0.009-0.001,0.018-0.002,0.027-0.004c0.044,0.185,0.098,0.363,0.148,0.545
		c0.378,0.194,0.77,0.362,1.173,0.502c-0.111-0.388-0.227-0.772-0.322-1.168c0.005,0,0.009-0.001,0.013-0.001
		c1.463-0.18,2.93-0.344,4.401-0.493c0.511,2.878,1.278,5.606,2.262,8.14c-0.002,0.001-0.004,0.001-0.006,0.002
		c-0.371,0.116-0.741,0.243-1.11,0.367c0.375,0.236,0.752,0.464,1.131,0.686c0.119-0.041,0.237-0.084,0.356-0.121
		c0.063,0.152,0.134,0.297,0.2,0.446c0.481,0.271,0.966,0.531,1.453,0.778c-0.239-0.496-0.482-0.988-0.699-1.507
		c1.003-0.297,2.013-0.558,3.024-0.808c-0.136-0.302-0.22-0.627-0.266-0.967c-1.043,0.259-2.084,0.529-3.119,0.838
		c-0.004,0.001-0.008,0.002-0.012,0.003c-0.963-2.473-1.717-5.142-2.22-7.959c0.168-0.017,0.337-0.028,0.505-0.044l4.816,4.283
		c0.078,0.372,0.165,0.735,0.245,1.105c0.216-0.527,0.563-0.981,0.993-1.343l-0.331-0.295c-0.279-1.354-0.534-2.733-0.715-4.177
		c1.532-0.11,3.066-0.201,4.604-0.281c0.011,0,0.022-0.001,0.033-0.002c0.015,0.194,0.038,0.379,0.055,0.572l-0.956,3.395
		c0.338,0.044,0.664,0.126,0.965,0.261l0.268-0.95c0.047,0.395,0.098,0.784,0.147,1.176c0.507,0.314,0.92,0.755,1.21,1.278
		c-0.246-1.646-0.452-3.352-0.607-5.115l0.189-0.672c1.404-0.063,2.81-0.116,4.218-0.155c0.017,0,0.034-0.001,0.051-0.002
		c0.085,2.146,0.205,4.261,0.362,6.305c-1.301,0.109-2.598,0.254-3.889,0.438c0.074,0.283,0.127,0.576,0.127,0.883
		c0,0.037-0.01,0.072-0.011,0.109c1.28-0.182,2.565-0.325,3.854-0.435c0.157,1.884,0.347,3.698,0.566,5.413
		c-0.552,0.097-1.102,0.212-1.649,0.34c-0.008,0.002-0.015,0.004-0.022,0.006c-0.546,0.128-1.09,0.274-1.632,0.434
		c-0.444-1.616-0.835-3.365-1.173-5.207c-0.114,0.591-0.385,1.119-0.756,1.563c0.279,1.38,0.585,2.711,0.928,3.954
		c-0.413,0.136-0.822,0.299-1.232,0.451c0.865,0.204,1.734,0.374,2.607,0.507c-0.031-0.099-0.063-0.193-0.094-0.295
		c0.004-0.001,0.007-0.002,0.011-0.003c0.405-0.118,0.812-0.225,1.218-0.328c0.497-0.124,0.995-0.241,1.495-0.337
		c0.143-0.028,0.284-0.065,0.428-0.091c0.001,0,0.003,0,0.004-0.001c0.065,0.472,0.136,0.924,0.206,1.377
		c0.301,0.015,0.602,0.033,0.903,0.039l0.001-0.55c-0.049-0.324-0.098-0.654-0.146-0.995c0.049-0.007,0.099-0.011,0.148-0.017
		l0.002-1.034c-0.096,0.013-0.19,0.022-0.286,0.036c-0.211-1.634-0.398-3.417-0.558-5.339c0.285-0.02,0.57-0.033,0.856-0.049
		l0.002-1.014c-0.312,0.022-0.625,0.044-0.938,0.065c-0.147-1.948-0.267-4.032-0.349-6.254c0.434-0.01,0.867-0.013,1.301-0.017
		l0.002-1.008c-0.445,0.007-0.891,0.015-1.336,0.024c-0.058-1.859-0.092-3.809-0.097-5.848h1.446l0.003-1h-1.449
		c0.002-0.949,0.016-1.86,0.03-2.769c-0.303,0.184-0.633,0.324-0.987,0.408c-0.018,0.788-0.041,1.574-0.043,2.36H27.93l0.648-2.303
		c-0.339-0.044-0.665-0.126-0.966-0.261l-0.723,2.563H25.11c0.011-2.056,0.085-4.074,0.222-6.034
		c0.011,0.001,0.022,0.001,0.033,0.001c0.066,0.003,0.133,0.006,0.198,0.009c0.028-0.351,0.099-0.688,0.223-1.002
		c-0.113-0.004-0.227-0.008-0.339-0.013c-0.013,0-0.024-0.001-0.036-0.001c0.186-2.297,0.45-4.511,0.79-6.605
		c0.011,0.002,0.022,0.003,0.033,0.004c1.343,0.195,2.69,0.346,4.043,0.46c0.008,0.001,0.015,0.001,0.021,0.002
		c-0.104,1.339-0.184,2.717-0.255,4.106c0.345,0.106,0.672,0.251,0.963,0.451c0.072-1.559,0.157-3.07,0.264-4.481
		c0.334,0.023,0.667,0.046,1.001,0.067l0.002-0.689l-7.105-0.004c-0.333,2.103-0.593,4.323-0.771,6.643c-0.002,0-0.004,0-0.006,0
		c-1.546-0.079-3.09-0.172-4.631-0.283c0.228-1.821,0.561-3.554,0.938-5.239c-0.352,0.169-0.724,0.284-1.108,0.356
		c-0.33,1.553-0.613,3.152-0.821,4.809c-0.007-0.001-0.014-0.001-0.021-0.002c-1.498-0.114-2.993-0.247-4.485-0.392
		c-0.005,0-0.01-0.001-0.016-0.001c0.346-1.936,0.824-3.789,1.394-5.568c-0.107-0.105-0.226-0.194-0.324-0.312
		c-0.156-0.188-0.29-0.396-0.416-0.607c-0.687,2.027-1.253,4.155-1.649,6.387c-0.016-0.002-0.031-0.004-0.048-0.006
		c-1.459-0.148-2.915-0.312-4.365-0.489c0.757-3.139,1.901-6.088,3.37-8.775c0.002,0.001,0.004,0.001,0.006,0.002
		c0.67,0.247,1.342,0.481,2.015,0.71c-0.015-0.164-0.04-0.325-0.04-0.492c0-0.197,0.015-0.394,0.035-0.59
		c-0.505-0.166-1.011-0.33-1.513-0.514c-0.003,0-0.005-0.001-0.007-0.002c1.498-2.558,3.294-4.858,5.332-6.83c0,0,0.001,0,0.002,0
		c0.541,0.36,1.085,0.705,1.632,1.031c0.001,0,0.002,0.002,0.003,0.002c-0.475,0.666-0.919,1.373-1.352,2.096
		c0.147-0.012,0.297-0.022,0.452-0.022c0.228,0,0.449,0.036,0.67,0.069c0.351-0.565,0.707-1.121,1.084-1.646
		c0.763,0.43,1.53,0.824,2.302,1.189c-0.272,0.58-0.528,1.188-0.778,1.805c0.01,0.011,0.022,0.018,0.032,0.028h1.001
		c0.2-0.487,0.399-0.976,0.614-1.437c0.479,0.211,0.961,0.409,1.444,0.596c0.015,0.006,0.029,0.011,0.044,0.017
		c0.484,0.186,0.969,0.36,1.456,0.521c-0.027,0.1-0.053,0.202-0.079,0.304h6.169c-0.224-0.024-0.447-0.045-0.67-0.076
		c-0.006-0.001-0.013-0.001-0.019-0.002c0.026-0.191,0.055-0.37,0.083-0.552c-0.326-0.153-0.629-0.323-0.908-0.516
		c-0.048,0.311-0.096,0.617-0.14,0.938h-0.001c-0.151-0.027-0.301-0.066-0.452-0.096c-0.491-0.096-0.98-0.21-1.47-0.331
		c-0.411-0.105-0.822-0.212-1.231-0.333c0.32-1.081,0.671-2.075,1.035-3.023c-0.215-0.537-0.369-1.093-0.451-1.662
		c-0.575,1.314-1.108,2.768-1.585,4.368c-0.916-0.304-1.828-0.648-2.735-1.044c-0.017-0.007-0.032-0.013-0.049-0.02
		c1.21-2.404,2.606-4.439,4.142-6.025h0.001c0.091,0.053,0.182,0.102,0.272,0.154c0.431-2.354,1.914-4.637,4.26-5.769
		c-0.506,0.044-1.009,0.097-1.509,0.16c-0.044,0.006-0.088,0.011-0.132,0.017c-0.54,0.071-1.076,0.154-1.608,0.249
		c-0.049,0.009-0.098,0.017-0.146,0.025c-0.525,0.096-1.046,0.202-1.562,0.319c-0.056,0.013-0.111,0.025-0.167,0.037
		c-0.509,0.119-1.013,0.247-1.513,0.386c-0.062,0.017-0.124,0.034-0.186,0.052c-0.492,0.139-0.979,0.288-1.462,0.447
		c-0.068,0.021-0.137,0.044-0.205,0.066c-0.474,0.159-0.942,0.328-1.407,0.505c-0.075,0.028-0.15,0.058-0.226,0.087
		c-0.455,0.177-0.904,0.361-1.35,0.557c-0.083,0.035-0.166,0.072-0.249,0.109c-0.434,0.192-0.863,0.394-1.288,0.604
		c-0.09,0.044-0.18,0.089-0.27,0.134c-0.413,0.208-0.822,0.423-1.227,0.646c-0.098,0.055-0.195,0.109-0.292,0.164
		c-0.392,0.221-0.777,0.447-1.159,0.681c-0.106,0.065-0.213,0.132-0.318,0.198c-0.368,0.231-0.732,0.468-1.091,0.711
		c-0.113,0.078-0.227,0.156-0.339,0.235c-0.346,0.24-0.688,0.485-1.024,0.737c-0.12,0.09-0.238,0.182-0.357,0.272
		c-0.322,0.248-0.642,0.5-0.955,0.759c-0.127,0.104-0.253,0.211-0.379,0.318c-0.299,0.252-0.594,0.508-0.883,0.77
		c-0.134,0.121-0.264,0.244-0.396,0.366c-0.276,0.257-0.55,0.517-0.817,0.782c-0.136,0.135-0.27,0.273-0.403,0.411
		c-0.254,0.261-0.507,0.522-0.752,0.79c-0.14,0.152-0.275,0.309-0.413,0.463c-0.23,0.261-0.461,0.522-0.685,0.791
		c-0.143,0.17-0.28,0.346-0.421,0.52c-0.208,0.259-0.416,0.519-0.617,0.784c-0.145,0.19-0.283,0.385-0.424,0.577
		c-0.187,0.258-0.373,0.515-0.553,0.776c-0.144,0.209-0.281,0.422-0.42,0.635c-0.166,0.255-0.334,0.509-0.494,0.768
		c-0.141,0.229-0.274,0.46-0.41,0.691c-0.146,0.251-0.295,0.5-0.436,0.755c-0.139,0.249-0.268,0.503-0.399,0.756
		c-0.127,0.244-0.257,0.486-0.378,0.733c-0.133,0.271-0.256,0.546-0.383,0.819c-0.107,0.237-0.221,0.472-0.323,0.712
		c-0.126,0.291-0.241,0.588-0.359,0.884c-0.091,0.229-0.187,0.455-0.272,0.686C2.036,23.26,1.93,23.58,1.82,23.899
		c-0.074,0.218-0.152,0.433-0.223,0.652c-0.108,0.342-0.205,0.688-0.303,1.034c-0.057,0.203-0.12,0.403-0.174,0.606
		c-0.098,0.374-0.184,0.752-0.27,1.13c-0.041,0.182-0.088,0.361-0.127,0.545c-0.086,0.411-0.158,0.827-0.229,1.244
		c-0.027,0.154-0.059,0.306-0.084,0.461c-0.074,0.476-0.134,0.957-0.188,1.439c-0.011,0.098-0.027,0.193-0.038,0.292
		C0.064,32.474,0,33.661,0,34.862c0,0.495,0.016,0.986,0.039,1.476C0.046,36.491,0.06,36.642,0.069,36.794z M27.647,35.363h2.145
		c0.005,1.957,0.041,3.925,0.106,5.875c-1.316,0.034-2.632,0.087-3.947,0.146L27.647,35.363z M26.608,35.363l-1.344,4.77
		c-0.087-1.563-0.146-3.149-0.154-4.77H26.608z M19.643,27.994c0.023,0.002,0.048,0.003,0.071,0.005
		c1.528,0.11,3.061,0.203,4.596,0.282c0.004,0,0.009,0.001,0.014,0.001c-0.131,1.967-0.202,3.998-0.213,6.081h-4.829
		C19.298,32.184,19.42,30.053,19.643,27.994z M24.11,35.363c0.011,2.086,0.083,4.12,0.213,6.09
		c-1.527,0.078-3.054,0.169-4.576,0.278c-0.034,0.003-0.069,0.004-0.104,0.007c-0.223-2.061-0.345-4.192-0.361-6.375H24.11z
		 M18.769,42.808c0.129,1.025,0.295,2.021,0.473,3.006l-3.12-2.774c0.848-0.075,1.693-0.157,2.543-0.223
		C18.698,42.814,18.733,42.811,18.769,42.808z M14.086,27.516c1.518,0.148,3.038,0.284,4.562,0.402
		c-0.228,2.085-0.351,4.24-0.367,6.445h-4.756C13.549,32.014,13.742,29.724,14.086,27.516z M18.281,35.363
		c0.017,2.207,0.141,4.364,0.367,6.451c-0.006,0-0.011,0.001-0.016,0.001c-1.183,0.091-2.36,0.2-3.538,0.311l-1.162-1.033
		c-0.244-1.861-0.388-3.773-0.407-5.729H18.281z M28.71,3.655c0.12-0.027,0.241-0.049,0.361-0.074
		c-0.307,0.252-0.608,0.523-0.906,0.807c-0.12-0.076-0.239-0.164-0.359-0.242C28.104,3.973,28.406,3.81,28.71,3.655z M26.869,4.723
		c0.191,0.132,0.384,0.264,0.576,0.388c-1.547,1.646-2.952,3.721-4.173,6.141c-0.003-0.002-0.005-0.002-0.008-0.004
		c-0.632-0.299-1.262-0.614-1.888-0.957c-0.083-0.047-0.168-0.088-0.251-0.135C22.83,7.942,24.765,6.104,26.869,4.723z
		 M23.644,5.204c0.081-0.032,0.161-0.064,0.242-0.096c0.414-0.159,0.833-0.311,1.256-0.454c0.068-0.023,0.137-0.048,0.206-0.071
		C23.505,5.95,21.8,7.65,20.276,9.642c-0.481-0.285-0.964-0.561-1.441-0.873c-0.015-0.01-0.03-0.019-0.046-0.029
		C20.295,7.38,21.919,6.19,23.644,5.204z M17.964,8.087c0.067-0.043,0.135-0.084,0.202-0.126c-0.07,0.063-0.14,0.127-0.209,0.19
		c-0.015-0.01-0.03-0.021-0.044-0.031C17.93,8.109,17.946,8.098,17.964,8.087z M13.219,11.749c0.018-0.016,0.035-0.033,0.053-0.049
		c0.567-0.523,1.154-1.027,1.758-1.512c0.029-0.023,0.06-0.046,0.089-0.07c0.609-0.483,1.234-0.949,1.879-1.391
		c0.001,0,0.003,0.001,0.004,0.002c0.065,0.047,0.132,0.091,0.198,0.137c-2.087,2.047-3.928,4.422-5.455,7.062
		c-0.262-0.101-0.521-0.218-0.782-0.321c-0.323-0.135-0.647-0.266-0.972-0.399C10.98,13.979,12.06,12.824,13.219,11.749z
		 M4.519,25.273c0.25-0.77,0.532-1.526,0.841-2.27c0.031-0.078,0.062-0.157,0.096-0.235c0.316-0.748,0.662-1.482,1.035-2.2
		c0.03-0.058,0.06-0.116,0.09-0.173c0.387-0.734,0.801-1.453,1.242-2.153c0.021-0.034,0.043-0.068,0.064-0.103
		c0.452-0.71,0.931-1.402,1.436-2.075c0.01-0.013,0.02-0.025,0.029-0.038c0.635,0.265,1.268,0.537,1.906,0.782
		c-1.494,2.76-2.654,5.783-3.42,8.998c-0.005-0.001-0.01-0.001-0.015-0.002c-1.095-0.14-2.185-0.29-3.272-0.445
		c-0.02-0.003-0.037-0.006-0.057-0.008C4.503,25.325,4.51,25.3,4.519,25.273z"/>
	<path fill="#ffffff" d="M43.068,3.587c0.104,0.021,0.209,0.044,0.313,0.066c0.305,0.155,0.606,0.319,0.906,0.492
		c-0.079,0.052-0.157,0.105-0.235,0.158c-0.042,0.026-0.082,0.058-0.124,0.084c-0.274-0.262-0.553-0.508-0.834-0.742
		c0.283,0.655,0.479,1.344,0.587,2.043c0.044-0.025,0.088-0.049,0.132-0.074c1.535,1.586,2.932,3.622,4.142,6.025
		c-0.922,0.404-1.85,0.754-2.781,1.062c-0.001,0-0.001,0-0.002,0.001c-0.46-1.543-0.971-2.954-1.521-4.233
		c-0.101,0.561-0.259,1.108-0.474,1.63c0.349,0.919,0.685,1.88,0.994,2.921c-0.001,0-0.001,0.001-0.002,0.001
		c-0.409,0.12-0.82,0.228-1.231,0.332c-0.484,0.12-0.97,0.233-1.456,0.328c-0.155,0.031-0.311,0.071-0.466,0.099
		c-0.038-0.276-0.08-0.541-0.12-0.81c-0.282,0.188-0.588,0.349-0.912,0.485c0.023,0.15,0.046,0.297,0.068,0.454
		c-0.006,0.001-0.012,0.001-0.019,0.002c-0.259,0.037-0.52,0.062-0.779,0.089c0,0.007,0,0.013,0,0.02h5.1
		c0.032-0.01,0.065-0.016,0.098-0.025c0.002,0.008,0.004,0.017,0.007,0.025h1.083c-0.029-0.112-0.058-0.227-0.088-0.336
		c0.484-0.16,0.967-0.333,1.447-0.518c0.021-0.008,0.042-0.016,0.062-0.023c0.479-0.186,0.955-0.381,1.43-0.59
		c0.002-0.001,0.003-0.002,0.004-0.002c0.22,0.471,0.423,0.971,0.627,1.469h1.045c-0.258-0.639-0.521-1.266-0.803-1.865
		c0.001,0,0.002-0.001,0.003-0.002c0.771-0.363,1.536-0.758,2.298-1.188h0.001c0.415,0.578,0.806,1.191,1.188,1.816
		c0.331-0.107,0.674-0.176,1.027-0.203c-0.435-0.728-0.883-1.439-1.36-2.109c0.548-0.327,1.094-0.672,1.637-1.033
		c2.038,1.973,3.835,4.273,5.333,6.83c-0.247,0.09-0.496,0.171-0.745,0.253c0.045,0.282,0.068,0.567,0.068,0.853
		c0,0.065-0.006,0.131-0.008,0.197c0.394-0.137,0.787-0.272,1.18-0.417c0.125,0.228,0.237,0.465,0.354,0.7
		c0.297-0.152,0.612-0.271,0.95-0.333c-0.115-0.238-0.229-0.479-0.354-0.71c0.243-0.094,0.484-0.199,0.727-0.299
		c0.394-0.156,0.786-0.32,1.178-0.484c0.014,0.018,0.027,0.036,0.041,0.054c0.499,0.665,0.973,1.35,1.42,2.052
		c0.026,0.043,0.054,0.086,0.081,0.129c0.141,0.223,0.261,0.459,0.396,0.686c0.094,0.134,0.171,0.279,0.246,0.426
		c0.194,0.339,0.402,0.669,0.585,1.015c0.036,0.069,0.071,0.14,0.107,0.21c0.365,0.706,0.705,1.427,1.018,2.162
		c0.039,0.094,0.076,0.188,0.114,0.283c0.301,0.727,0.576,1.466,0.821,2.219c0.01,0.03,0.019,0.062,0.028,0.093
		c-0.023,0.003-0.047,0.006-0.07,0.01c-1.087,0.155-2.175,0.304-3.268,0.443c-0.002,0.001-0.003,0.001-0.005,0.001
		c-0.156-0.656-0.343-1.298-0.532-1.938c-0.28,0.184-0.593,0.315-0.921,0.412c0.16,0.545,0.319,1.089,0.454,1.646
		c-1.464,0.18-2.932,0.343-4.404,0.493c-0.003,0-0.007,0.001-0.01,0.001c-0.09-0.505-0.213-0.987-0.318-1.482l1.284-1.151
		c-0.274-0.195-0.513-0.434-0.721-0.698l-0.805,0.723c-0.246-1.029-0.524-2.037-0.832-3.021c-0.242,0.268-0.52,0.506-0.83,0.707
		c0.302,1.003,0.572,2.029,0.811,3.078l-2.45,2.197c-0.539,0.045-1.076,0.1-1.615,0.141c-0.014,0.001-0.027,0.003-0.041,0.004
		c-0.22-1.749-0.521-3.436-0.876-5.068c-0.428-0.175-0.825-0.413-1.188-0.711c0.44,1.871,0.817,3.811,1.072,5.854
		c-1.535,0.111-3.075,0.202-4.616,0.282c-0.007,0-0.013,0-0.02,0.001c-0.179-2.32-0.438-4.542-0.771-6.646l-7.108,0.006v0.69
		c0.335-0.021,0.671-0.044,1.006-0.067c0.147,1.949,0.267,4.033,0.349,6.257c-0.011,0-0.022,0-0.033,0
		c-0.439,0.01-0.879,0.013-1.318,0.017l0.001,1.019c0.46-0.007,0.92-0.015,1.38-0.025c0.001,0,0.003,0,0.004,0
		c0.039,1.251,0.062,2.557,0.078,3.888l-1.46-0.516v1.061l1.47,0.52c0.002,0.298,0.008,0.583,0.009,0.885h-1.478v1h1.478
		c-0.005,2.039-0.039,3.988-0.097,5.848c-0.459-0.011-0.919-0.019-1.378-0.025l0.001,1.009c0.448,0.004,0.896,0.007,1.344,0.017
		c-0.082,2.222-0.201,4.306-0.349,6.254c-0.331-0.023-0.661-0.045-0.992-0.067v1.013c0.299,0.016,0.599,0.029,0.897,0.05
		c0.005,0,0.01,0.001,0.016,0.001c-0.159,1.923-0.347,3.706-0.558,5.34c-0.117-0.017-0.235-0.029-0.353-0.044v1.034
		c0.072,0.008,0.145,0.014,0.217,0.024c-0.069,0.497-0.143,0.971-0.216,1.437v0.106c0.323-0.008,0.649-0.029,0.976-0.048
		c0.069-0.45,0.14-0.898,0.204-1.366c0.15,0.026,0.3,0.065,0.449,0.095c0.494,0.096,0.986,0.211,1.477,0.333
		c0.411,0.105,0.821,0.212,1.229,0.332c-0.025,0.084-0.052,0.163-0.078,0.244c0.82-0.135,1.642-0.307,2.462-0.505
		c-0.367-0.136-0.732-0.281-1.102-0.402c0.502-1.822,0.94-3.797,1.304-5.904c0.853,0.138,1.7,0.304,2.549,0.475
		c0.464,0.095,0.929,0.188,1.393,0.292h0.001c-0.49,1.732-1.073,3.343-1.71,4.863c0.404-0.128,0.809-0.259,1.211-0.401
		c0.533-1.342,1.025-2.746,1.45-4.233c0.004,0.001,0.008,0.002,0.012,0.003c1.202,0.286,2.398,0.606,3.59,0.959
		c0.001,0,0.003,0.001,0.004,0.001c-0.199,0.476-0.42,0.928-0.637,1.385c0.482-0.242,0.961-0.494,1.436-0.756
		c0.052-0.116,0.106-0.229,0.155-0.347c0.003,0.001,0.006,0.002,0.01,0.003c0.091,0.028,0.182,0.062,0.271,0.093
		c0.388-0.221,0.771-0.444,1.152-0.678c-0.354-0.118-0.707-0.239-1.062-0.351c0.983-2.533,1.752-5.262,2.262-8.141
		c0.005,0.001,0.011,0.001,0.017,0.002c1.47,0.149,2.936,0.313,4.397,0.492c-0.096,0.397-0.212,0.785-0.324,1.175
		c0.405-0.137,0.795-0.299,1.169-0.487c0.053-0.188,0.108-0.375,0.154-0.566c0.003,0.001,0.007,0.001,0.01,0.001
		c0.225,0.028,0.447,0.061,0.67,0.091c0.411-0.258,0.809-0.54,1.191-0.85c-0.547-0.076-1.093-0.151-1.641-0.222
		c-0.003,0-0.007-0.001-0.01-0.001c0.513-2.434,0.797-4.969,0.83-7.575h3.771c-0.001,0.048-0.003,0.096-0.004,0.144
		c-0.013,0.582-0.042,1.16-0.086,1.734c-0.011,0.148-0.024,0.295-0.038,0.442c-0.043,0.477-0.1,0.95-0.164,1.421
		c-0.029,0.209-0.058,0.419-0.091,0.627c-0.062,0.388-0.136,0.772-0.212,1.156c0.552-0.61,1.097-1.247,1.646-1.896
		c0.321-0.378,0.643-0.757,0.967-1.13l0.928-1.07c0.01-0.168,0.025-0.334,0.032-0.503c0.014-0.297,0.018-0.596,0.023-0.895
		c0.003-0.178,0.014-0.353,0.014-0.531c0-0.502-0.018-0.999-0.039-1.496c-0.004-0.087-0.002-0.177-0.007-0.264
		c-0.019-0.363-0.053-0.722-0.083-1.082c-0.019-0.224-0.03-0.45-0.053-0.673c-0.034-0.334-0.083-0.664-0.128-0.996
		c-0.032-0.244-0.059-0.49-0.096-0.733c-0.05-0.321-0.113-0.639-0.172-0.957c-0.046-0.248-0.087-0.498-0.138-0.745
		c-0.065-0.312-0.143-0.621-0.217-0.932c-0.059-0.246-0.112-0.495-0.176-0.74c-0.081-0.308-0.173-0.611-0.262-0.916
		c-0.07-0.241-0.137-0.484-0.212-0.724c-0.097-0.306-0.204-0.606-0.31-0.908c-0.08-0.232-0.157-0.466-0.242-0.696
		c-0.113-0.303-0.236-0.602-0.357-0.901c-0.09-0.223-0.177-0.447-0.271-0.667c-0.129-0.301-0.268-0.596-0.404-0.892
		c-0.099-0.214-0.195-0.429-0.298-0.64c-0.146-0.297-0.3-0.589-0.453-0.881c-0.106-0.203-0.211-0.408-0.321-0.609
		c-0.162-0.295-0.333-0.585-0.504-0.875c-0.112-0.19-0.223-0.382-0.338-0.57c-0.181-0.293-0.368-0.58-0.557-0.867
		c-0.117-0.179-0.233-0.359-0.354-0.535c-0.197-0.289-0.402-0.573-0.608-0.856c-0.121-0.167-0.241-0.335-0.365-0.499
		c-0.216-0.286-0.438-0.565-0.662-0.845c-0.124-0.154-0.247-0.31-0.374-0.462c-0.234-0.282-0.476-0.559-0.719-0.834
		c-0.125-0.141-0.248-0.281-0.375-0.42c-0.254-0.278-0.514-0.55-0.776-0.819c-0.125-0.129-0.25-0.259-0.378-0.386
		c-0.271-0.271-0.549-0.535-0.83-0.799c-0.125-0.117-0.251-0.234-0.378-0.35c-0.291-0.265-0.588-0.523-0.888-0.777
		c-0.124-0.105-0.247-0.211-0.372-0.314c-0.311-0.257-0.626-0.508-0.946-0.754c-0.121-0.094-0.243-0.188-0.366-0.28
		c-0.33-0.248-0.664-0.49-1.003-0.728c-0.118-0.082-0.236-0.164-0.355-0.246c-0.351-0.238-0.704-0.471-1.063-0.697
		c-0.113-0.072-0.228-0.143-0.343-0.214c-0.369-0.228-0.742-0.448-1.12-0.663c-0.109-0.062-0.22-0.124-0.33-0.186
		c-0.389-0.215-0.78-0.423-1.177-0.624c-0.104-0.054-0.211-0.105-0.316-0.158C51.95,3.451,51.54,3.257,51.125,3.07
		c-0.1-0.045-0.2-0.089-0.301-0.132c-0.425-0.188-0.854-0.366-1.286-0.537c-0.095-0.037-0.19-0.072-0.285-0.109
		c-0.442-0.17-0.889-0.332-1.34-0.485c-0.088-0.03-0.177-0.059-0.265-0.088c-0.461-0.152-0.925-0.298-1.394-0.433
		c-0.082-0.023-0.164-0.045-0.246-0.067c-0.478-0.134-0.959-0.261-1.445-0.375c-0.074-0.018-0.149-0.033-0.225-0.05
		c-0.495-0.114-0.994-0.221-1.498-0.314c-0.065-0.012-0.133-0.021-0.199-0.034c-0.513-0.093-1.028-0.177-1.549-0.247
		c-0.06-0.009-0.119-0.015-0.178-0.022c-0.401-0.053-0.807-0.095-1.212-0.134C41.301,0.818,42.414,2.105,43.068,3.587z
		 M57.672,25.705c0.056,0.275,0.126,0.541,0.176,0.819c-0.001,0-0.001,0-0.001,0c-0.401,0.039-0.805,0.068-1.206,0.105
		L57.672,25.705z M53.734,27.893l-0.271,0.243c-0.007-0.071-0.01-0.146-0.018-0.218C53.542,27.91,53.638,27.9,53.734,27.893z
		 M41.813,21.182c1.364-0.115,2.726-0.267,4.08-0.464c0.34,2.095,0.604,4.309,0.79,6.604c-1.498,0.071-2.998,0.125-4.5,0.166
		c-0.009,0-0.017,0.001-0.025,0.001c-0.084-2.146-0.205-4.262-0.362-6.306C41.802,21.183,41.808,21.183,41.813,21.182z
		 M44.452,55.729c-0.006-0.002-0.011-0.003-0.017-0.004c-0.537-0.158-1.076-0.303-1.617-0.43c-0.007-0.001-0.013-0.003-0.02-0.004
		c-0.549-0.129-1.099-0.244-1.65-0.341c0.22-1.715,0.408-3.529,0.566-5.413c1.341,0.113,2.678,0.262,4.01,0.455
		C45.365,52.033,44.939,53.958,44.452,55.729z M45.894,49.007c-1.354-0.197-2.716-0.349-4.08-0.464
		c-0.006-0.001-0.012-0.001-0.018-0.002c0.157-2.043,0.278-4.158,0.362-6.303c1.511,0.04,3.019,0.096,4.525,0.166
		C46.498,44.699,46.233,46.912,45.894,49.007z M42.242,41.239c-0.016-0.001-0.03-0.002-0.046-0.002
		c0.065-1.949,0.101-3.917,0.106-5.874h0.966c-0.024-0.165-0.051-0.329-0.051-0.501c0-0.171,0.026-0.335,0.051-0.499h-0.966
		c-0.001-0.177-0.009-0.354-0.01-0.532l0.993,0.352c0.066-0.335,0.192-0.645,0.348-0.938l-1.36-0.481
		c-0.016-1.423-0.029-2.849-0.077-4.265c0.009,0,0.018-0.001,0.026-0.001c1.51-0.041,3.018-0.097,4.524-0.168
		c0.005-0.001,0.011-0.001,0.016-0.001c0.069,1.002,0.11,2.029,0.146,3.062c0.354,0.02,0.691,0.09,1.009,0.207
		c-0.034-1.119-0.073-2.234-0.146-3.315h0.001c1.562-0.081,3.123-0.175,4.68-0.288c0.034,0.32,0.051,0.652,0.08,0.977l-3.596,3.224
		c0.258,0.215,0.492,0.455,0.679,0.735l3.02-2.708c0.097,1.359,0.167,2.735,0.178,4.142h-2.66c0.024,0.164,0.051,0.328,0.051,0.499
		c0,0.172-0.026,0.336-0.051,0.501h2.66c-0.017,2.182-0.139,4.313-0.361,6.375c-1.554-0.112-3.111-0.205-4.671-0.285
		c-0.003-0.001-0.006-0.001-0.009-0.001c0.071-1.084,0.11-2.202,0.145-3.325c-0.317,0.117-0.655,0.188-1.007,0.207
		c-0.036,1.035-0.077,2.065-0.146,3.072C45.258,41.335,43.751,41.28,42.242,41.239z M50.961,49.938
		c-0.004-0.001-0.008-0.002-0.012-0.003c-0.483-0.107-0.967-0.208-1.451-0.305c-0.857-0.176-1.716-0.341-2.578-0.479
		c0.336-2.119,0.598-4.36,0.778-6.699c1.548,0.079,3.094,0.171,4.636,0.282C52.019,45.262,51.554,47.675,50.961,49.938z
		 M55.628,51.162c-1.229-0.366-2.464-0.697-3.705-0.993c-0.004-0.001-0.008-0.002-0.012-0.003c0.612-2.314,1.09-4.778,1.414-7.358
		c0.025,0.002,0.051,0.005,0.076,0.007c1.482,0.114,2.963,0.244,4.438,0.387c0.003,0.001,0.005,0.001,0.008,0.001
		C57.346,46.021,56.591,48.688,55.628,51.162z M58.008,42.213c-0.003,0-0.006-0.001-0.01-0.001c-1.482-0.145-2.97-0.275-4.46-0.391
		c-0.031-0.002-0.062-0.006-0.093-0.008c0.227-2.086,0.351-4.244,0.367-6.45h4.756C58.545,37.714,58.352,40.005,58.008,42.213z
		 M53.812,34.363c-0.013-1.695-0.108-3.35-0.246-4.977l1.829-1.641c0.871-0.075,1.743-0.145,2.612-0.229
		c0.344,2.207,0.537,4.497,0.561,6.847H53.812z M63.482,42.818c-1.484-0.183-2.973-0.35-4.466-0.502
		c-0.005-0.001-0.01-0.001-0.015-0.002c0.348-2.242,0.542-4.567,0.566-6.951h4.738C64.273,37.929,63.991,40.425,63.482,42.818z
		 M59.568,34.363c-0.023-2.384-0.219-4.707-0.566-6.948c0.014-0.001,0.027-0.003,0.041-0.005c1.484-0.152,2.964-0.318,4.439-0.501
		c0.51,2.394,0.791,4.889,0.824,7.454H59.568z M67.889,26.321c0.735,2.567,1.146,5.262,1.191,8.042h-3.773
		c-0.033-2.605-0.317-5.141-0.829-7.575C65.618,26.643,66.755,26.485,67.889,26.321z M54.933,8.842
		c0.055-0.038,0.109-0.075,0.164-0.114c0.656,0.45,1.294,0.924,1.914,1.418c0.012,0.009,0.023,0.018,0.035,0.027
		c1.868,1.494,3.565,3.183,5.058,5.035c-0.449,0.186-0.897,0.378-1.349,0.554c-0.135,0.055-0.269,0.114-0.404,0.166
		c-1.528-2.64-3.369-5.015-5.455-7.061C54.908,8.858,54.92,8.851,54.933,8.842z M54.184,8.12c-0.016,0.01-0.031,0.021-0.046,0.031
		c-0.07-0.062-0.14-0.127-0.21-0.19C54.013,8.015,54.099,8.065,54.184,8.12z M48.358,5.163c0.024,0.01,0.049,0.02,0.074,0.029
		c1.73,0.989,3.36,2.183,4.872,3.548c-0.014,0.009-0.027,0.017-0.041,0.025c-0.477,0.312-0.959,0.587-1.439,0.872
		c-0.003,0.002-0.005,0.002-0.007,0.004c-1.524-1.994-3.233-3.697-5.08-5.064C47.284,4.759,47.825,4.954,48.358,5.163z
		 M45.225,4.723c2.104,1.382,4.039,3.22,5.744,5.433c-0.003,0.002-0.005,0.004-0.008,0.005c-0.072,0.04-0.146,0.076-0.218,0.116
		c-0.637,0.35-1.278,0.671-1.921,0.975c-1.222-2.42-2.626-4.495-4.174-6.141C44.841,4.986,45.033,4.854,45.225,4.723z"/>
	<circle fill="#ffffff" cx="61.825" cy="20.947" r="2.493"/>
</g>
</svg>
