<svg version="1.2" id="Layer_1" xmlns="http://www.w3.org/2000/svg" xmlns:xlink="http://www.w3.org/1999/xlink" x="0px" y="0px"
	 viewBox="181.023 -0.045 478.034 476.269"
	 enable-background="new 181.023 -0.045 478.034 476.269" xml:space="preserve">
<path fill="#fff" d="M659.057,434.745L543.774,320.114c24.602-33.351,39.13-74.579,39.087-119.194c0-0.316,0-0.633-0.002-0.95
	C582.359,89.006,492-0.543,381.036-0.043c-110.964,0.499-200.511,90.857-200.012,201.82c0.5,110.965,90.858,200.513,201.822,200.013
	c44.891-0.148,86.295-15.028,119.646-40.052l115.181,114.485L659.057,434.745z M380.942,343.257
	c-78.611-0.526-141.913-64.681-141.388-143.293c0.526-78.612,64.681-141.914,143.293-141.388
	c78.317,0.341,141.575,64.023,141.391,142.343c0,0.315-0.001,0.633-0.003,0.949C523.707,280.48,459.554,343.782,380.942,343.257z"/>
</svg>
